<svg width="300" height="30" viewBox="0 0 300 30" fill="none" xmlns="http://www.w3.org/2000/svg">
<path d="M192.021 17.2501C192.207 17.2529 191.95 17.2724 191.25 17.3085C190.55 17.2979 189.874 17.2644 189.221 17.2079L192.021 17.2501ZM60.6466 15.1975C60.834 15.1537 61.2073 15.1593 61.7665 15.2144C62.3731 15.2236 62.9334 15.2087 63.4474 15.1698C63.5407 15.1712 63.4704 15.1935 63.2364 15.2366C63.003 15.2331 62.6997 15.2285 62.3265 15.2229C61.9998 15.2179 61.6499 15.2127 61.2766 15.207C60.9499 15.2021 60.74 15.1989 60.6466 15.1975ZM8.94633 22.1182C9.03825 22.2129 9.13016 22.3076 9.22207 22.4024C9.36065 22.4978 9.49923 22.5932 9.6378 22.6887C9.6371 22.7353 9.61377 22.735 9.56781 22.6876C9.52185 22.6402 9.45256 22.5925 9.35995 22.5445C9.26803 22.4497 9.17541 22.4017 9.08209 22.4003C9.03613 22.3529 9.0128 22.3525 9.0121 22.3992C8.82686 22.3031 8.71162 22.208 8.66636 22.1139C8.57374 22.0659 8.48148 21.9945 8.38956 21.8997C8.20503 21.7569 8.22907 21.7106 8.46167 21.7608C8.36905 21.7127 8.2538 21.6177 8.11593 21.4756C8.20785 21.5703 8.27714 21.618 8.3238 21.6187L8.5306 21.8319C8.57727 21.8326 8.64655 21.8803 8.73847 21.975C8.78513 21.9757 8.85442 22.0234 8.94633 22.1182ZM5.27055 19.8224C5.26915 19.9158 5.3151 19.9631 5.40843 19.9645L5.61523 20.1777C5.56857 20.177 5.54559 20.1533 5.5463 20.1066L5.54841 19.9667C5.4565 19.8719 5.41124 19.7779 5.41265 19.6846C5.36669 19.6372 5.34407 19.5902 5.34477 19.5435L5.34583 19.4735C5.34653 19.4269 5.39354 19.4043 5.48687 19.4057C5.7612 19.7832 5.96731 20.043 6.10518 20.1851C6.15113 20.2324 6.17411 20.2561 6.17411 20.2561C6.22077 20.2568 6.26708 20.2809 6.31304 20.3282C6.40496 20.423 6.45091 20.4703 6.45091 20.4703C6.49616 20.5644 6.54177 20.6351 6.58773 20.6824C6.63439 20.6831 6.6807 20.7072 6.72666 20.7545C6.81857 20.8493 6.86417 20.92 6.86347 20.9666C6.90943 21.014 6.95538 21.0613 7.00134 21.1087C7.0473 21.1561 7.06957 21.2264 7.06816 21.3197L6.99817 21.3187C6.95151 21.318 6.9052 21.2939 6.85925 21.2466C6.71926 21.2445 6.557 21.172 6.37247 21.0292C6.37247 21.0292 6.27985 20.9811 6.09461 20.885C6.04936 20.791 5.93412 20.6959 5.74888 20.5998C5.61101 20.4577 5.4049 20.1978 5.13057 19.8203C5.13198 19.727 5.17864 19.7277 5.27055 19.8224ZM25.7565 12.2907C25.7565 12.2907 25.6629 12.3126 25.4755 12.3565C25.2882 12.4003 25.1008 12.4442 24.9135 12.488C24.7268 12.4852 24.5402 12.4824 24.3535 12.4796C24.2135 12.4775 24.1439 12.4531 24.1446 12.4064C24.5179 12.412 24.7979 12.4163 24.9845 12.4191C25.2185 12.3759 25.4759 12.3331 25.7565 12.2907ZM8.07418 14.9642C7.93349 15.0087 7.86315 15.031 7.86315 15.031C7.86385 14.9844 7.88789 14.938 7.93525 14.8921C7.98262 14.8461 8.02999 14.8002 8.07735 14.7542C8.12472 14.7083 8.10174 14.6846 8.00842 14.6832C8.24313 14.5934 8.33645 14.5948 8.28838 14.6874C8.24031 14.78 8.16891 14.8723 8.07418 14.9642ZM3.94043 15.1818C3.89306 15.2278 3.84605 15.2504 3.79939 15.2497C3.79939 15.2497 3.7757 15.2727 3.72834 15.3187C3.63361 15.4106 3.58624 15.4565 3.58624 15.4565C3.68097 15.3646 3.82307 15.2267 4.01253 15.0429C4.20199 14.8591 4.43777 14.6993 4.71985 14.5635C4.95597 14.3804 5.21472 14.2443 5.4961 14.1552C5.77818 14.0194 6.03657 13.9067 6.27129 13.8169C6.36532 13.7716 6.38865 13.772 6.34128 13.8179C6.34128 13.8179 6.29427 13.8405 6.20024 13.8858C6.15358 13.8851 6.03622 13.93 5.84817 14.0205L5.42505 14.2241L4.36566 14.8382C4.27093 14.9301 4.19988 14.9991 4.15252 15.045C4.10585 15.0443 4.03516 15.0899 3.94043 15.1818ZM1.76539 15.4991C1.66996 15.6376 1.59856 15.7299 1.55119 15.7759C1.50453 15.7752 1.50523 15.7285 1.5533 15.6359C1.60067 15.5899 1.62435 15.5669 1.62435 15.5669C1.62506 15.5203 1.67277 15.451 1.76751 15.3591C1.76821 15.3124 1.81593 15.2431 1.91066 15.1512C1.91136 15.1046 1.95908 15.0353 2.05381 14.9434L2.26696 14.7365C2.31432 14.6906 2.338 14.6676 2.338 14.6676C2.33871 14.6209 2.36274 14.5746 2.41011 14.5287L2.62325 14.3219L2.8364 14.1151C2.93043 14.0698 3.04849 13.9782 3.19058 13.8404C3.28461 13.7951 3.37899 13.7265 3.47372 13.6346C3.56704 13.636 3.3539 13.8428 2.83429 14.255C2.74026 14.3003 2.66956 14.3459 2.6222 14.3919C2.62149 14.4385 2.57413 14.4845 2.4801 14.5297C2.43203 14.6224 2.38431 14.6916 2.33695 14.7376C2.29029 14.7369 2.24292 14.7829 2.19485 14.8755C2.10012 14.9674 2.05275 15.0133 2.05275 15.0133C2.00539 15.0593 1.98135 15.1056 1.98065 15.1523C1.98065 15.1523 1.95697 15.1752 1.9096 15.2212C1.9096 15.2212 1.88557 15.2675 1.8375 15.3601C1.79013 15.4061 1.7661 15.4524 1.76539 15.4991ZM56.5939 5.40525C56.3133 5.44769 55.893 5.46468 55.333 5.45623C54.7731 5.44778 54.1898 5.43898 53.5832 5.42982C52.9766 5.42067 52.3934 5.41187 51.8334 5.40341C51.3202 5.39567 50.9476 5.34337 50.7157 5.24653C51.7422 5.26202 52.6751 5.29944 53.5143 5.35877C54.3542 5.37145 55.3808 5.38694 56.5939 5.40525ZM7.0288 19.2889C7.16668 19.431 7.28192 19.5261 7.37454 19.5742L7.30455 19.5731L7.3056 19.5031L7.23561 19.5021L7.16668 19.431L7.0288 19.2889ZM66.035 15.3488L66.245 15.352L66.035 15.3488ZM7.30455 19.5731L7.37454 19.5742L7.30455 19.5731ZM7.30455 19.5731L7.3056 19.5031L7.30455 19.5731ZM7.92497 20.2125L7.92603 20.1426L7.92497 20.2125ZM7.85603 20.1415C7.9027 20.1422 7.92567 20.1659 7.92497 20.2125C7.92497 20.2125 7.90199 20.1889 7.85603 20.1415ZM7.16668 19.431L7.23667 19.4321L7.16668 19.431ZM7.23561 19.5021L7.3056 19.5031C7.25894 19.5024 7.23596 19.4787 7.23667 19.4321L7.23561 19.5021ZM7.78815 20.0005L7.71816 19.9994C7.76482 20.0001 7.7878 20.0238 7.7871 20.0704L7.78815 20.0005C7.69624 19.9057 7.62695 19.858 7.58029 19.8573C7.53433 19.8099 7.4654 19.7389 7.37348 19.6442L7.44348 19.6452L7.44242 19.7152L7.51241 19.7163L7.51136 19.7863C7.55802 19.787 7.58099 19.8106 7.58029 19.8573L7.65028 19.8584L7.64923 19.9284L7.71922 19.9294L7.64923 19.9284C7.69518 19.9757 7.71816 19.9994 7.71816 19.9994L7.78815 20.0005ZM7.37454 19.5742L7.37348 19.6442L7.37454 19.5742ZM7.78815 20.0005L7.7871 20.0704L7.78815 20.0005ZM7.58029 19.8573L7.58135 19.7873L7.51136 19.7863C7.55802 19.787 7.58099 19.8106 7.58029 19.8573C7.62695 19.858 7.64993 19.8817 7.64923 19.9284C7.60327 19.881 7.58029 19.8573 7.58029 19.8573ZM7.51136 19.7863L7.51241 19.7163L7.51136 19.7863ZM7.51241 19.7163L7.44242 19.7152L7.51241 19.7163ZM7.37348 19.6442L7.44348 19.6452L7.37348 19.6442ZM8.20071 20.4967L8.19966 20.5667L8.20071 20.4967ZM7.92603 20.1426L7.85603 20.1415L7.92603 20.1426ZM7.37348 19.6442L7.37454 19.5742L7.37348 19.6442ZM7.7871 20.0704L7.85603 20.1415C7.81008 20.0941 7.7871 20.0704 7.7871 20.0704C7.83376 20.0712 7.85674 20.0948 7.85603 20.1415C7.81008 20.0941 7.7871 20.0704 7.7871 20.0704ZM8.54328 20.992C8.54328 20.992 8.56626 21.0156 8.61221 21.063C8.56555 21.0623 8.54258 21.0386 8.54328 20.992ZM9.02372 21.6293L9.02266 21.6993C9.02337 21.6526 9.00039 21.6289 8.95373 21.6282C8.95373 21.6282 8.95408 21.6049 8.95478 21.5582C8.95478 21.5582 8.97776 21.5819 9.02372 21.6293ZM8.40541 20.8499C8.45207 20.8506 8.47505 20.8743 8.47434 20.9209C8.52101 20.9216 8.54398 20.9453 8.54328 20.992L8.54434 20.922C8.49767 20.9213 8.47434 20.9209 8.47434 20.9209C8.47505 20.8743 8.45207 20.8506 8.40541 20.8499ZM9.09265 21.7003L9.02266 21.6993L9.0916 21.7703L9.09265 21.7003ZM8.40541 20.8499L8.40646 20.7799L8.40541 20.8499ZM9.09054 21.8403L9.0916 21.7703L9.09054 21.8403ZM8.81691 21.4161C8.86357 21.4168 8.88655 21.4405 8.88585 21.4872L8.81691 21.4161ZM8.81797 21.3461C8.72605 21.2514 8.68045 21.1807 8.68115 21.1341C8.68045 21.1807 8.68009 21.2041 8.68009 21.2041C8.72676 21.2048 8.74973 21.2284 8.74903 21.2751L8.81797 21.3461ZM9.02372 21.6293C8.97706 21.6286 8.95408 21.6049 8.95478 21.5582L9.02372 21.6293ZM8.95584 21.4882L8.88585 21.4872L8.95584 21.4882ZM8.95584 21.4882L8.95478 21.5582C8.86287 21.4635 8.81726 21.3928 8.81797 21.3461C8.81656 21.4395 8.86252 21.4868 8.95584 21.4882L8.95478 21.5582L8.95584 21.4882ZM8.61221 21.063C8.61151 21.1097 8.63449 21.1334 8.68115 21.1341C8.63449 21.1334 8.61151 21.1097 8.61221 21.063ZM1.90326 15.6412C1.998 15.5492 2.04571 15.48 2.04642 15.4333L2.04536 15.5033C2.04536 15.5033 1.998 15.5492 1.90326 15.6412ZM8.75009 21.2051L8.74903 21.2751L8.75009 21.2051ZM9.02266 21.6993L9.02372 21.6293L9.02266 21.6993ZM8.81691 21.4161L8.81797 21.3461L8.74903 21.2751L8.81797 21.3461L8.81691 21.4161ZM7.92391 20.2825L7.92497 20.2125C7.92427 20.2592 7.94724 20.2829 7.99391 20.2836L7.92391 20.2825ZM7.92603 20.1426L7.85603 20.1415L7.92603 20.1426ZM8.06178 20.4246L8.13178 20.4257C8.08512 20.425 8.06214 20.4013 8.06284 20.3546L8.06178 20.4246ZM7.92497 20.2125L7.85603 20.1415C7.9027 20.1422 7.92567 20.1659 7.92497 20.2125ZM7.99391 20.2836C7.99391 20.2836 8.01688 20.3073 8.06284 20.3546L7.99285 20.3536L7.99391 20.2836ZM7.92497 20.2125L7.92603 20.1426C8.01653 20.3306 8.10809 20.4487 8.20071 20.4967L8.13072 20.4957L8.13178 20.4257C8.03986 20.331 7.97058 20.2832 7.92391 20.2825L7.92497 20.2125ZM8.33858 20.6388L8.26859 20.6378L8.33858 20.6388ZM8.13178 20.4257C8.08512 20.425 8.06178 20.4246 8.06178 20.4246C8.06249 20.378 8.03951 20.3543 7.99285 20.3536C7.99355 20.3069 7.97093 20.2599 7.92497 20.2125C7.92427 20.2592 7.94724 20.2829 7.99391 20.2836L7.99285 20.3536L8.06284 20.3546C8.06284 20.3546 8.08582 20.3783 8.13178 20.4257ZM8.33753 20.7088L8.40646 20.7799L8.33753 20.7088ZM8.40646 20.7799L8.40541 20.8499L8.40646 20.7799ZM8.33858 20.6388L8.33753 20.7088L8.33858 20.6388ZM8.26859 20.6378L8.26965 20.5678L8.26859 20.6378ZM8.26965 20.5678L8.26859 20.6378L8.40646 20.7799L8.19966 20.5667L8.26965 20.5678ZM8.13072 20.4957L8.13178 20.4257C8.13107 20.4724 8.13072 20.4957 8.13072 20.4957C8.17738 20.4964 8.20036 20.5201 8.19966 20.5667C8.1537 20.5194 8.13072 20.4957 8.13072 20.4957ZM8.54328 20.992C8.45137 20.8972 8.40541 20.8499 8.40541 20.8499L8.61221 21.063L8.54328 20.992ZM15.1162 21.5112C14.8815 21.601 14.6704 21.6678 14.4831 21.7117C14.3431 21.7096 14.2728 21.7318 14.2721 21.7785C14.3647 21.8266 14.5283 21.8057 14.7631 21.7159C15.0444 21.6268 15.3488 21.5614 15.6761 21.5197C15.4414 21.6095 15.2304 21.6763 15.043 21.7201C14.8564 21.7173 14.6457 21.7608 14.411 21.8506C14.2236 21.8944 14.0363 21.9383 13.8489 21.9821C13.6616 22.026 13.4742 22.0698 13.2869 22.1137C12.9115 22.248 12.5594 22.3827 12.2307 22.5178C11.9493 22.6069 11.7146 22.6967 11.5265 22.7872C11.4799 22.7865 11.4565 22.7861 11.4565 22.7861C11.5039 22.7402 11.5509 22.7175 11.5976 22.7182C11.5983 22.6716 11.622 22.6486 11.6686 22.6493C11.716 22.6034 11.7397 22.5804 11.7397 22.5804C11.7863 22.5811 11.8333 22.5585 11.8807 22.5125C11.9754 22.4206 12.0932 22.3524 12.2338 22.3078C12.3745 22.2633 12.4922 22.195 12.587 22.1031L12.9369 22.1084C13.1702 22.1119 13.3809 22.0684 13.569 21.9779C13.8504 21.8888 13.8974 21.8662 13.71 21.91C13.5234 21.9072 13.4537 21.8828 13.5011 21.8369C13.8758 21.7492 14.2268 21.6845 14.5541 21.6427C14.8822 21.5543 15.2569 21.4667 15.6782 21.3797C15.8182 21.3818 15.8179 21.4051 15.6772 21.4497C15.5372 21.4475 15.3502 21.4681 15.1162 21.5112ZM28.3254 18.3502C28.1847 18.3947 27.9744 18.4149 27.6944 18.4106C27.7877 18.4121 27.9044 18.4138 28.0444 18.4159C28.1844 18.418 28.278 18.3961 28.3254 18.3502C28.652 18.3551 28.909 18.3356 29.0964 18.2918C28.9557 18.3363 28.722 18.3562 28.3954 18.3512L28.3254 18.3502ZM40.1636 17.8987C38.2024 17.9625 36.3112 18.0273 34.49 18.0932C32.6688 18.159 30.8709 18.2252 29.0964 18.2918C32.7868 18.0675 36.4996 17.9135 40.2346 17.8298C42.3824 17.7689 44.5296 17.7546 46.676 17.787C48.8231 17.7727 51.0169 17.7592 53.2573 17.7463C53.8173 17.7548 54.0036 17.7809 53.8162 17.8247C53.6762 17.8226 53.42 17.7954 53.0474 17.7431C50.8069 17.756 48.6131 17.7696 46.466 17.7838C44.3655 17.7988 42.2647 17.8371 40.1636 17.8987ZM34.2842 17.81C34.7049 17.7697 35.1252 17.7527 35.5451 17.759C35.9651 17.7654 36.2917 17.7703 36.525 17.7738C35.7318 17.7619 35.0782 17.7753 34.5642 17.8142C34.0502 17.8532 33.4196 17.8903 32.6723 17.9257C32.7197 17.8798 32.8833 17.8589 33.1633 17.8631C33.4906 17.8214 33.8643 17.8037 34.2842 17.81ZM36.805 17.7781C39.3275 17.6294 41.8953 17.5748 44.5083 17.6143C47.1221 17.607 49.8991 17.6023 52.8395 17.6C50.3184 17.6553 47.7276 17.6862 45.0672 17.6927C42.4075 17.6526 39.6535 17.681 36.805 17.7781ZM20.5159 16.2721C20.0478 16.3584 19.6268 16.422 19.2528 16.463C18.8788 16.5041 18.5515 16.5458 18.2708 16.5882C18.1316 16.5395 18.2722 16.4949 18.6929 16.4546C19.1136 16.4143 19.5109 16.3736 19.8849 16.3326C20.2129 16.2442 20.6806 16.1812 21.2879 16.1437C21.8959 16.0596 22.5739 15.9764 23.3219 15.8944C24.0699 15.8123 24.7942 15.7533 25.4948 15.7172C26.1961 15.6344 26.8034 15.5969 27.3167 15.6046C27.0834 15.6011 26.5694 15.64 25.7748 15.7214C25.0268 15.8034 24.1855 15.8841 23.2508 15.9633C22.7835 16.0029 22.3162 16.0426 21.8489 16.0822C21.3816 16.1218 20.9372 16.1851 20.5159 16.2721ZM10.2833 17.0278C10.1426 17.0723 10.0956 17.0949 10.1423 17.0956C10.1896 17.0497 10.237 17.0037 10.2844 16.9578C10.3784 16.9125 10.4254 16.8899 10.4254 16.8899C10.4728 16.8439 10.4261 16.8432 10.2854 16.8878C10.2868 16.7945 10.4042 16.7496 10.6375 16.7531C10.8715 16.7099 11.0352 16.6891 11.1285 16.6905C11.0352 16.6891 10.8945 16.7336 10.7064 16.8241L10.2833 17.0278ZM23.9304 12.6832C23.461 12.8628 22.7353 13.0152 21.7533 13.1404C21.2386 13.226 20.7009 13.2879 20.1403 13.3261C19.5796 13.3643 18.9957 13.4022 18.3884 13.4397C18.4817 13.4411 18.7387 13.4216 19.1593 13.3813C19.5807 13.2943 20.072 13.2084 20.6334 13.1235C21.2414 13.0393 21.8257 12.9781 22.3864 12.9399C22.9944 12.8558 23.509 12.7702 23.9304 12.6832ZM240.356 6.0082C240.402 6.00891 241.312 6.0693 243.083 6.18938C244.855 6.30946 247.186 6.50799 250.075 6.78495C252.965 7.06192 256.226 7.41451 259.86 7.84273C263.542 8.22499 267.245 8.70092 270.97 9.27053C274.742 9.84084 278.372 10.5024 281.861 11.2551C285.398 11.9619 288.489 12.7786 291.135 13.7053C293.782 14.5854 295.821 15.5496 297.252 16.598C298.683 17.6463 299.156 18.7969 298.671 20.0497C298.136 21.4418 297.724 22.4857 297.433 23.1814C297.189 23.8778 296.879 24.3165 296.503 24.4975C296.174 24.6793 295.684 24.6719 295.033 24.4754C294.43 24.2796 293.501 23.9855 292.246 23.5932C290.992 23.2009 289.342 22.7793 287.295 22.3284C285.295 21.8781 282.711 21.4657 279.543 21.0912C279.729 21.1407 279.891 21.1898 280.03 21.2386C280.217 21.2414 280.427 21.2679 280.659 21.3181C281.218 21.4199 281.847 21.4994 282.546 21.5566C283.011 21.657 283.36 21.7089 283.594 21.7124C283.78 21.7619 283.943 21.7877 284.083 21.7898C284.269 21.7926 284.479 21.8191 284.711 21.8693C284.479 21.8191 284.223 21.7919 283.943 21.7877C283.709 21.7842 283.476 21.7573 283.244 21.7072C282.917 21.7022 282.661 21.675 282.475 21.6255L281.705 21.6139C281.192 21.5595 280.68 21.5284 280.166 21.5207C279.7 21.467 279.211 21.4129 278.699 21.3585C277.673 21.2497 276.648 21.1642 275.622 21.1021C274.596 21.0399 273.547 20.9541 272.476 20.8446C271.963 20.7902 271.45 20.7591 270.937 20.7513C270.471 20.6976 269.982 20.6436 269.469 20.5892C269.236 20.539 268.98 20.5118 268.7 20.5076C268.42 20.5033 268.164 20.4761 267.931 20.4259C267.698 20.4224 267.441 20.4186 267.161 20.4143C266.928 20.4108 266.695 20.384 266.463 20.3338C265.483 20.2723 264.528 20.2112 263.595 20.1505C262.709 20.0904 261.823 20.0304 260.937 19.9704C260.285 19.9138 259.562 19.8796 258.769 19.8676C258.023 19.8097 257.207 19.7274 256.322 19.6207C255.856 19.6136 255.389 19.6066 254.922 19.5996C254.503 19.5466 254.037 19.5162 253.524 19.5084C253.058 19.4547 252.568 19.424 252.055 19.4163C251.588 19.4092 251.099 19.3785 250.586 19.3241C248.534 19.1998 246.482 19.0988 244.43 19.0212C242.425 18.8976 240.536 18.7757 238.765 18.6556C238.997 18.7058 239.044 18.7299 238.904 18.7277C238.81 18.7263 238.577 18.6995 238.205 18.6472C237.878 18.6423 237.505 18.6366 237.085 18.6303C236.712 18.578 236.409 18.5501 236.176 18.5466C236.455 18.5974 236.572 18.6225 236.525 18.6218C236.478 18.6211 236.362 18.6194 236.175 18.6166C235.988 18.6137 235.755 18.6102 235.475 18.606C235.196 18.5551 234.963 18.5283 234.776 18.5254C235.056 18.5763 235.172 18.6014 235.125 18.6007C235.079 18.6 234.962 18.5982 234.775 18.5954C234.589 18.5459 234.356 18.5191 234.076 18.5149C233.844 18.4647 233.634 18.4382 233.447 18.4354C233.447 18.482 233.516 18.5064 233.656 18.5085C233.843 18.5114 233.983 18.5135 234.076 18.5149C233.516 18.5064 233.05 18.4994 232.677 18.4937C232.351 18.4422 232.048 18.4142 231.768 18.41C231.488 18.4058 231.208 18.4016 230.928 18.3973C230.694 18.3938 230.368 18.3889 229.948 18.3826C230.226 18.5268 230.131 18.642 229.663 18.7283C229.242 18.7686 228.658 18.8065 227.911 18.8419C227.211 18.8313 226.418 18.8193 225.531 18.806C224.691 18.7933 223.991 18.8061 223.43 18.8443C223.384 18.7969 223.455 18.7746 223.641 18.7774C223.875 18.781 224.131 18.7848 224.411 18.7891C224.738 18.794 225.064 18.7989 225.391 18.8038C225.718 18.7621 225.999 18.743 226.232 18.7465L224.552 18.7212C224.272 18.717 223.992 18.7127 223.712 18.7085C223.479 18.705 223.223 18.6778 222.943 18.6269L219.724 18.5783C218.651 18.5154 217.742 18.4784 216.995 18.4671C216.296 18.4099 215.364 18.3258 214.199 18.2149C213.686 18.1605 213.126 18.1287 212.52 18.1195C211.914 18.0637 211.284 18.0309 210.631 18.021C210.259 17.9687 209.909 17.9401 209.582 17.9352C209.256 17.9303 208.906 17.925 208.532 17.9194C208.16 17.8671 207.787 17.8381 207.414 17.8325C207.087 17.8275 206.737 17.8223 206.364 17.8166C204.871 17.7474 203.355 17.7012 201.815 17.678C200.323 17.6088 198.831 17.5163 197.339 17.4004C197.712 17.4527 197.758 17.4767 197.478 17.4725C197.198 17.4683 196.778 17.4619 196.218 17.4535C195.938 17.4493 195.635 17.4447 195.308 17.4398C195.029 17.3889 194.749 17.3613 194.469 17.3571L193.629 17.3444L192.929 17.3339C192.977 17.2879 193.094 17.2663 193.28 17.2691C193.467 17.272 193.63 17.2744 193.77 17.2765C193.957 17.2794 194.097 17.2815 194.19 17.2829C194.33 17.285 194.377 17.2624 194.331 17.215C194.564 17.2652 194.61 17.2892 194.47 17.2871C194.377 17.2857 194.33 17.3083 194.329 17.355C195.169 17.4143 195.705 17.4224 195.939 17.3793C196.173 17.3361 196.476 17.3407 196.849 17.393C197.036 17.3492 196.967 17.3248 196.64 17.3198C196.36 17.3156 196.01 17.3103 195.59 17.304C195.218 17.2517 194.845 17.2227 194.471 17.2171C194.145 17.2122 194.028 17.1871 194.123 17.1418C193.797 17.0902 193.47 17.062 193.144 17.0571C192.817 17.0521 192.49 17.0472 192.164 17.0423L190.344 17.0148L186.704 16.9599C185.492 16.8949 184.326 16.854 183.206 16.8371C182.133 16.8209 181.059 16.8047 179.986 16.7885C180.919 16.8492 181.921 16.911 182.994 16.9739C184.067 16.9901 185.117 17.0059 186.143 17.0214C187.217 17.0376 188.243 17.0764 189.222 17.1379C190.249 17.1534 191.182 17.1675 192.022 17.1801C192.302 17.1844 192.511 17.2109 192.651 17.2596C192.791 17.2617 192.651 17.2363 192.232 17.1833C189.479 17.1418 187.052 17.1051 184.953 17.0735C182.9 16.9958 181.081 16.9217 179.495 16.8511L178.655 16.8384C178.469 16.8356 178.282 16.8561 178.094 16.8999C177.954 16.8978 177.768 16.895 177.534 16.8915L175.015 16.8535C174.128 16.8401 173.288 16.8274 172.495 16.8154C171.749 16.7575 171.166 16.7254 170.746 16.719C170.746 16.719 170.816 16.7201 170.956 16.7222C171.096 16.7243 171.236 16.7264 171.376 16.7286C171.563 16.7314 171.703 16.7335 171.796 16.7349C171.936 16.737 171.959 16.7607 171.865 16.8059L176.764 16.8799C177.698 16.894 178.561 16.9303 179.353 16.9889C180.193 17.0016 180.939 17.0362 181.592 17.0927C181.405 17.0899 181.219 17.0871 181.032 17.0843C180.846 17.0348 180.66 17.0087 180.473 17.0059L178.373 16.9742L170.044 16.8485L165.845 16.7851C165.471 16.8261 165.12 16.8442 164.794 16.8392C164.467 16.8343 164.117 16.829 163.744 16.8234L161.644 16.7917C160.29 16.8179 158.913 16.8205 157.514 16.7994C156.114 16.7783 154.713 16.7805 153.313 16.806C152.66 16.7961 151.983 16.7859 151.283 16.7754C150.583 16.7648 149.883 16.7776 149.182 16.8137L147.153 16.783C146.779 16.7774 146.429 16.7955 146.102 16.8372C145.775 16.8323 145.425 16.827 145.052 16.8213C143.698 16.8476 142.344 16.8738 140.99 16.9001C139.637 16.8796 138.283 16.8825 136.93 16.9088C136.556 16.9032 136.206 16.8979 135.88 16.8929C135.553 16.888 135.226 16.9064 134.899 16.9481C134.525 16.9425 134.175 16.9372 133.849 16.9323C133.569 16.9281 133.242 16.9465 132.868 16.9875C132.215 16.9776 131.538 16.9908 130.837 17.0269C130.184 17.017 129.53 17.0305 128.876 17.0673C127.522 17.0935 126.192 17.1201 124.885 17.1471C123.577 17.174 122.27 17.201 120.963 17.2279C120.636 17.2696 120.309 17.288 119.982 17.2831C119.702 17.2789 119.399 17.2743 119.072 17.2694C118.745 17.3111 118.418 17.3295 118.091 17.3246C117.764 17.3196 117.437 17.338 117.11 17.3798C116.456 17.4166 115.826 17.4304 115.219 17.4212C114.613 17.4121 113.982 17.4259 113.328 17.4627C112.441 17.496 111.554 17.5293 110.667 17.5626C109.78 17.5492 108.893 17.5591 108.006 17.5924C107.539 17.632 107.095 17.6487 106.675 17.6423C106.255 17.636 105.811 17.6526 105.344 17.6923L104.014 17.6722C103.78 17.7153 103.547 17.7351 103.313 17.7316C103.127 17.7288 102.917 17.7256 102.683 17.7221C100.909 17.7887 99.1576 17.8556 97.4297 17.9229C95.7025 17.9435 93.9517 17.9871 92.1771 18.0536C91.7565 18.0939 91.3358 18.1343 90.9152 18.1746C90.4952 18.1683 90.0519 18.1616 89.5853 18.1545C89.1647 18.1949 88.7207 18.2348 88.2534 18.2744C87.8334 18.2681 87.4135 18.2618 86.9935 18.2554C86.1055 18.3354 85.2179 18.392 84.3306 18.4253C83.4907 18.4126 82.6501 18.4466 81.8088 18.5272C80.9215 18.5605 80.0576 18.5941 79.217 18.6281C78.3764 18.6621 77.5125 18.6957 76.6252 18.729L74.1023 18.901C73.6823 18.8946 73.2387 18.9113 72.7714 18.9509C72.3514 18.9446 71.9311 18.9616 71.5105 19.0019C69.8293 19.0699 68.1477 19.1612 66.4658 19.2758C64.7839 19.3904 63.1023 19.4817 61.4211 19.5497C61.1878 19.5462 60.9774 19.5663 60.7901 19.6102C60.6034 19.6074 60.3935 19.6042 60.1602 19.6007L59.8802 19.5965L59.8102 19.5954L59.7391 19.6643L59.3892 19.6591L59.1792 19.6559L58.5493 19.6464L56.0296 19.6084C55.2356 19.643 54.4187 19.654 53.5788 19.6414C52.7855 19.6294 51.9686 19.6404 51.128 19.6744C47.907 19.7191 44.7319 19.8112 41.6028 19.9507C38.4743 20.0435 35.3685 20.1833 32.2854 20.3701C31.0708 20.4452 29.8791 20.5439 28.7105 20.6662C27.5892 20.7427 26.6302 20.8915 25.8334 21.1129C27.7472 21.0951 29.8025 20.9861 31.9991 20.7859C33.0737 20.7087 34.1246 20.6546 35.1519 20.6234C36.2265 20.5463 37.3008 20.4925 38.3747 20.462C41.3172 20.3198 44.2356 20.2238 47.13 20.1741C48.5313 20.1019 49.9318 20.0764 51.3317 20.0975C52.7789 20.0727 54.2494 20.0482 55.7433 20.0241C54.3887 20.097 53.0111 20.1462 51.6106 20.1717C50.21 20.1973 48.6928 20.221 47.059 20.2431C47.2449 20.2925 47.5479 20.3204 47.9678 20.3268C48.3885 20.2865 48.8088 20.2695 49.2287 20.2758C49.6494 20.2355 50.023 20.2178 50.3496 20.2227C50.6763 20.2276 50.8629 20.2305 50.9096 20.2312C48.4818 20.2879 46.007 20.3672 43.4852 20.4692C40.964 20.5245 38.4422 20.6264 35.9197 20.775C33.4438 20.9244 31.0376 21.0981 28.701 21.2962C26.3644 21.4943 24.1901 21.7648 22.178 22.1078C21.8514 22.1029 21.8517 22.0796 22.1791 22.0378C22.5064 21.9961 22.7171 21.9526 22.8111 21.9074C22.5785 21.8572 22.3448 21.877 22.1101 21.9668C21.8761 22.0099 21.5954 22.0524 21.2681 22.0941C21.7835 21.9619 22.2519 21.8523 22.6732 21.7653C23.0953 21.6316 23.3311 21.4718 23.3805 21.2859C22.7259 21.3693 22.2578 21.4556 21.9765 21.5447C21.7425 21.5879 21.4385 21.63 21.0645 21.671C20.7845 21.6668 20.8319 21.6208 21.2066 21.5331C21.3472 21.4886 21.4876 21.4673 21.6276 21.4695C21.7683 21.4249 21.8623 21.3797 21.9096 21.3337C21.6756 21.3768 21.4416 21.42 21.2076 21.4631C21.021 21.4603 20.9506 21.4826 20.9966 21.5299C20.6226 21.571 20.4826 21.5689 20.5766 21.5236C20.6714 21.4317 20.7424 21.3628 20.7898 21.3168C20.5558 21.3599 20.4151 21.4045 20.3677 21.4504C20.321 21.4497 20.1811 21.4476 19.9478 21.4441C20.0425 21.3522 20.2302 21.285 20.5109 21.2426C20.7915 21.2001 21.0722 21.1577 21.3529 21.1153C22.009 20.9385 22.314 20.8264 22.2681 20.779C23.7647 20.5683 25.1907 20.4031 26.546 20.2835C27.948 20.1647 29.3262 20.0688 30.6808 19.9959C30.5408 19.9938 30.4942 19.9931 30.5408 19.9938C30.5875 19.9945 30.6338 20.0185 30.6798 20.0659C31.1945 19.9803 31.8254 19.9198 32.5727 19.8844C33.3207 19.8024 34.092 19.7207 34.8867 19.6393C35.6806 19.6046 36.4513 19.5696 37.1985 19.5342C37.9458 19.4988 38.5768 19.4383 39.0915 19.3527C39.0455 19.3054 38.8359 19.2789 38.4626 19.2732C38.136 19.2683 37.809 19.2867 37.4817 19.3284C38.6044 19.1587 39.8434 19.014 41.1986 18.8945C42.6006 18.7756 43.9555 18.6794 45.2635 18.6058C45.5434 18.61 45.6131 18.6344 45.4724 18.6789C45.3324 18.6768 45.4717 18.7256 45.8902 18.8253C46.0769 18.8281 46.1469 18.8291 46.1002 18.8284C46.1002 18.8284 46.0535 18.8277 45.9602 18.8263C45.9143 18.779 45.868 18.7549 45.8213 18.7542C45.822 18.7076 45.939 18.686 46.1723 18.6895C46.6389 18.6965 46.8485 18.723 46.8012 18.769C47.8758 18.6919 49.0897 18.6635 50.4429 18.6839C51.7961 18.7044 53.2196 18.7025 54.7134 18.6784L56.9532 18.7122C57.1872 18.669 57.5608 18.6513 58.0741 18.6591L59.124 18.6749L59.404 18.6792L59.7539 18.6844L59.8239 18.6855L59.965 18.6176L60.5249 18.6261C60.7122 18.5822 61.0392 18.5638 61.5058 18.5709C61.8332 18.5291 62.1368 18.5104 62.4168 18.5146C62.7441 18.4729 63.0481 18.4308 63.3288 18.3884L69.8444 18.0666C70.9657 17.9902 72.0633 17.9368 73.1372 17.9063C74.2585 17.8299 75.3561 17.7764 76.43 17.746C77.5513 17.6695 78.6722 17.6165 79.7928 17.5867C80.9141 17.5103 82.012 17.4335 83.0866 17.3564L86.4494 17.1971C86.7294 17.2013 87.0094 17.2055 87.2893 17.2098C87.57 17.1673 87.8503 17.1482 88.1303 17.1525C88.411 17.11 88.6913 17.0909 88.9712 17.0951C89.2512 17.0994 89.5312 17.1036 89.8111 17.1078C92.0997 17.0023 94.3882 16.8969 96.6767 16.7914C99.0119 16.6866 101.37 16.6055 103.751 16.5481C106.132 16.4907 108.537 16.4336 110.965 16.3769C113.392 16.3202 115.867 16.2642 118.388 16.2089C116.287 16.2239 114.14 16.2382 111.947 16.2517C109.754 16.2186 107.513 16.2315 105.225 16.2903L103.545 16.265C103.218 16.3067 102.914 16.3254 102.634 16.3212C102.355 16.317 102.075 16.3128 101.795 16.3085C101.234 16.3468 100.65 16.3613 100.044 16.3521C99.4838 16.3437 98.9002 16.3582 98.2929 16.3957C97.1256 16.4248 95.9584 16.4538 94.7911 16.4829C93.6246 16.4653 92.4577 16.471 91.2905 16.5001C90.0759 16.5751 88.885 16.6271 87.7177 16.6562C86.5512 16.6386 85.3606 16.6673 84.146 16.7423C82.9321 16.7706 81.7415 16.7993 80.5743 16.8284C79.4071 16.8575 78.2165 16.8862 77.0026 16.9145C74.6215 16.9719 72.2633 17.053 69.9281 17.1578C67.6403 17.2166 65.3525 17.2754 63.0647 17.3342C62.6907 17.3753 62.317 17.393 61.9438 17.3873C61.6171 17.3824 61.2668 17.4005 60.8928 17.4415L59.7729 17.4246L59.7719 17.4946L59.7019 17.4935L59.4219 17.4893L59.2819 17.4872L59.002 17.483L58.4431 17.4045L54.1736 17.3401C52.7737 17.319 51.3972 17.2982 50.0441 17.2778C48.6909 17.2573 47.3373 17.2603 45.9835 17.2865C43.3231 17.293 40.7786 17.348 38.3501 17.4513C35.9216 17.5547 33.6557 17.7072 31.5524 17.9088C30.4778 17.9859 29.4265 18.0634 28.3986 18.1412C27.3706 18.2191 26.3893 18.2976 25.4547 18.3768C24.4727 18.502 23.514 18.6276 22.5787 18.7535C21.644 18.8327 20.7087 18.9586 19.7726 19.1312C17.9486 19.3837 16.2169 19.7076 14.5774 20.1029C14.156 20.1899 13.7343 20.3002 13.3122 20.4339C12.9375 20.5215 12.5628 20.6092 12.1881 20.6969C11.9534 20.7867 11.7424 20.8536 11.555 20.8974C11.4144 20.9419 11.25 21.0095 11.0619 21.1C11.0153 21.0993 10.9683 21.1219 10.9209 21.1679C10.9209 21.1679 10.8976 21.1675 10.8509 21.1668L10.5699 21.2326L10.1468 21.4362C10.052 21.5281 9.93432 21.5964 9.79363 21.6409C9.65294 21.6855 9.53523 21.7537 9.4405 21.8456C9.39314 21.8916 9.34612 21.9142 9.29946 21.9135L9.2984 21.9835L9.22841 21.9824C9.1365 21.8877 9.09054 21.8403 9.09054 21.8403L9.16053 21.8414L9.15948 21.9114L9.16053 21.8414L9.23052 21.8424L9.23158 21.7724L9.30157 21.7735C9.30228 21.7268 9.32596 21.7039 9.37262 21.7046L9.37368 21.6346C9.28035 21.6332 9.18633 21.6784 9.0916 21.7703L9.09265 21.7003L9.02266 21.6993L9.02372 21.6293L9.09371 21.6303L9.09476 21.5603C9.1895 21.4684 9.33089 21.3772 9.51894 21.2867C9.56631 21.2408 9.61332 21.2181 9.65998 21.2188L9.80208 21.081L9.87207 21.082L10.0131 21.0141C10.0131 21.0141 10.0601 20.9915 10.1542 20.9463C10.6236 20.7667 11.1867 20.5651 11.8435 20.3417C12.5936 20.1196 13.273 19.9432 13.8817 19.8124C14.5844 19.6363 15.3101 19.4839 16.0588 19.3552C16.8549 19.1805 17.6506 19.0292 18.446 18.9012C19.2413 18.7731 20.0363 18.6685 20.831 18.5871C21.6263 18.4591 22.4213 18.3544 23.216 18.2731C23.1234 18.225 22.8904 18.1981 22.5171 18.1925C23.4517 18.1133 24.433 18.0347 25.461 17.9569C26.489 17.8791 27.5403 17.8016 28.6149 17.7245C30.8122 17.4776 33.0784 17.3018 35.4136 17.197L30.9341 17.1294C30.1402 17.1641 29.3229 17.1984 28.4823 17.2324C27.6424 17.2197 26.7551 17.253 25.8205 17.3323C25.8205 17.3323 25.8671 17.333 25.9605 17.3344C26.0538 17.3358 26.1704 17.3375 26.3104 17.3396C26.4504 17.3418 26.5671 17.3435 26.6604 17.3449C26.7537 17.3463 26.7767 17.37 26.7293 17.416C26.356 17.4103 25.9357 17.4273 25.4684 17.467C25.0018 17.4599 24.5348 17.4762 24.0675 17.5158C23.1329 17.5951 22.3845 17.7004 21.8225 17.832C22.0077 17.9281 22.1 17.9995 22.0993 18.0462C22.0993 18.0462 22.0293 18.0451 21.8893 18.043C21.7967 17.9949 21.6807 17.9465 21.5415 17.8977C21.4022 17.849 21.3332 17.7779 21.3346 17.6846C21.0087 17.633 20.6358 17.604 20.2158 17.5977C19.8425 17.5921 19.6799 17.543 19.728 17.4503C19.3073 17.4907 18.9097 17.5547 18.535 17.6424C18.2076 17.6841 17.8099 17.7481 17.3419 17.8344C17.25 17.7396 17.344 17.6944 17.624 17.6986C17.9513 17.6569 18.279 17.5918 18.6071 17.5034C18.3271 17.4992 18.2341 17.4745 18.3282 17.4292C18.4229 17.3373 18.3539 17.2662 18.1213 17.2161C18.3561 17.1263 18.5194 17.1287 18.6113 17.2235C18.7039 17.2715 18.8435 17.297 19.0302 17.2998C19.3109 17.2573 19.3345 17.2344 19.1012 17.2308C18.9146 17.228 18.892 17.181 19.0334 17.0898C19.4074 17.0488 19.594 17.0516 19.5933 17.0983C19.6392 17.1456 19.7552 17.194 19.9411 17.2435C20.1759 17.1537 20.3169 17.0858 20.3643 17.0399C20.4116 16.9939 20.272 16.9685 19.9454 16.9636C20.46 16.878 21.021 16.8164 21.6283 16.7789C22.2363 16.6948 22.821 16.6102 23.3824 16.5254C23.8971 16.4398 24.3647 16.3768 24.7854 16.3365C25.206 16.2962 25.4634 16.2534 25.5574 16.2082L27.0272 16.2303L28.987 16.2599C29.1744 16.2161 29.1751 16.1694 28.9891 16.1199C28.8032 16.0704 28.8739 16.0248 29.2012 15.9831C30.5558 15.9102 31.9556 15.9313 33.4007 16.0465C34.8465 16.115 36.3393 16.1608 37.8792 16.1841C37.8792 16.1841 37.9488 16.2085 38.0881 16.2572C38.2281 16.2594 38.3681 16.2615 38.508 16.2636C38.648 16.2657 38.7413 16.2671 38.788 16.2678C38.8347 16.2685 38.7643 16.2908 38.577 16.3346C40.1642 16.3119 41.9606 16.339 43.9664 16.416C45.9721 16.4929 48.0952 16.5249 50.3356 16.5121C49.3572 16.404 48.238 16.3404 46.9781 16.3214C45.7649 16.3031 44.8091 16.242 44.1106 16.1381C44.2972 16.1409 44.1806 16.1392 43.7606 16.1328C43.388 16.0805 42.8991 16.0031 42.294 15.9007C41.6881 15.8448 41.1055 15.7894 40.5463 15.7343C39.9877 15.6325 39.6392 15.5339 39.5006 15.4385C40.7612 15.4108 42.1377 15.4316 43.6301 15.5008C45.1233 15.5233 46.6628 15.5699 48.2486 15.6405C49.8343 15.7111 51.3968 15.7813 52.9359 15.8512C54.5217 15.9218 56.0385 15.9214 57.4864 15.8499C57.2531 15.8464 56.9965 15.8425 56.7165 15.8383C56.4839 15.7881 56.2043 15.7605 55.8777 15.7556C55.8317 15.7083 55.9721 15.687 56.2987 15.692C54.667 15.574 52.9649 15.4783 51.1924 15.4049C49.4667 15.3322 47.7876 15.2602 46.1551 15.1888L46.8551 15.1994C46.8536 15.2927 46.713 15.3373 46.433 15.3331C46.2004 15.2829 46.1078 15.2348 46.1551 15.1888C44.9412 15.2172 43.7973 15.2466 42.7234 15.2771C41.6962 15.3082 40.6689 15.3394 39.6416 15.3706C38.567 15.4477 37.5161 15.5019 36.4888 15.533C35.4616 15.5642 34.3873 15.618 33.266 15.6944C32.892 15.7354 32.6821 15.7323 32.6361 15.6849C32.5901 15.6375 32.4272 15.6117 32.1472 15.6075C31.6792 15.6938 31.0949 15.755 30.3942 15.7911C29.741 15.7812 29.0404 15.8173 28.2924 15.8994C27.5451 15.9348 26.8211 15.9705 26.1205 16.0066C25.4665 16.0434 24.8826 16.0813 24.3686 16.1202C24.8373 15.9873 25.469 15.8801 26.2637 15.7988C27.0583 15.7174 27.8763 15.6364 28.7176 15.5558C29.5589 15.4751 30.3299 15.4167 31.0305 15.3806C31.7785 15.2986 32.2935 15.1897 32.5756 15.0539C32.2023 15.0483 31.712 15.0642 31.1047 15.1017C30.4981 15.0926 29.9142 15.1304 29.3528 15.2153C29.4921 15.2641 29.795 15.292 30.2617 15.299C30.729 15.2594 31.1963 15.2198 31.6636 15.1802C31.1489 15.2658 30.3313 15.3234 29.2107 15.3532C28.1375 15.337 26.9236 15.3653 25.569 15.4382C24.8677 15.521 24.1667 15.5804 23.4661 15.6165C22.7662 15.606 22.0889 15.6424 21.4342 15.7259C20.7329 15.8086 20.0549 15.8918 19.4002 15.9752C18.7463 16.012 18.1386 16.0729 17.5773 16.1577C17.3432 16.2009 17.0626 16.2433 16.7352 16.285C16.4553 16.2808 16.1513 16.3229 15.8232 16.4113C15.4952 16.4997 15.1675 16.5647 14.8402 16.6065C14.5595 16.6489 14.3018 16.715 14.0671 16.8048C13.8331 16.848 13.6457 16.8918 13.505 16.9364C13.411 16.9816 13.4107 17.005 13.504 17.0064C13.5506 17.0071 13.691 16.9858 13.925 16.9427C14.2057 16.9003 14.6267 16.8366 15.188 16.7517C14.6733 16.8373 14.135 16.9459 13.5729 17.0774C13.0116 17.1623 12.4499 17.2705 11.8878 17.402C10.7651 17.5718 9.71139 17.8126 8.72657 18.1244C8.77394 18.0784 8.91498 18.0106 9.14969 17.9208C9.24442 17.8288 9.43248 17.7383 9.71385 17.6492C9.94857 17.5594 10.1596 17.4926 10.3469 17.4488C10.581 17.4056 10.7453 17.3381 10.8401 17.2462C10.8401 17.2462 10.8171 17.2225 10.7711 17.1751L10.3512 17.1688C10.5859 17.079 10.7969 17.0122 10.9843 16.9683C11.1723 16.8778 11.3837 16.7877 11.6184 16.6979C11.8065 16.6074 11.9942 16.5402 12.1815 16.4964C12.3696 16.4058 12.581 16.3157 12.8157 16.2259C12.9557 16.228 13.0257 16.2291 13.0257 16.2291C13.0257 16.2291 13.002 16.252 12.9546 16.298C12.9079 16.2973 12.8609 16.3199 12.8136 16.3659C12.7662 16.4118 12.7892 16.4355 12.8825 16.4369C13.2572 16.3492 13.7719 16.2637 14.4266 16.1802C14.5672 16.1356 14.6376 16.1134 14.6376 16.1134C14.6376 16.1134 14.5909 16.1127 14.4976 16.1113C14.4509 16.1106 14.4043 16.1098 14.3576 16.1091C14.3117 16.0618 14.312 16.0384 14.3587 16.0392C14.686 15.9974 15.1537 15.9345 15.7617 15.8503C16.4164 15.7668 16.8374 15.7032 17.0247 15.6593C16.6514 15.6537 16.3244 15.6721 16.0438 15.7145C15.7631 15.757 15.4358 15.7987 15.0618 15.8397C14.7365 15.7415 14.1763 15.7564 13.3809 15.8844C12.5863 15.9657 11.7206 16.116 10.7838 16.3352C9.80039 16.5538 8.88627 16.82 8.04144 17.134C7.80672 17.2238 7.59534 17.3139 7.40728 17.4044C7.26589 17.4956 7.1245 17.5868 6.98311 17.678C6.79505 17.7685 6.63033 17.8594 6.48894 17.9506C6.39491 17.9959 6.30053 18.0645 6.2058 18.1564L6.3479 18.0185L6.48999 17.8806C6.53736 17.8347 6.56104 17.8117 6.56104 17.8117C6.56175 17.765 6.58578 17.7187 6.63315 17.6728C6.72788 17.5808 6.77595 17.4882 6.77736 17.3949L6.9905 17.1881C7.03857 17.0955 7.22768 16.935 7.55783 16.7066C7.69922 16.6154 7.86395 16.5245 8.052 16.434C8.28672 16.3442 8.59142 16.2555 8.96612 16.1678C8.73211 16.2109 8.52143 16.2544 8.33408 16.2983C8.14673 16.3421 7.9357 16.4089 7.70098 16.4987C7.46697 16.5419 7.25629 16.5854 7.06894 16.6292C6.92825 16.6738 6.74055 16.7409 6.50584 16.8307C6.31778 16.9213 6.15341 16.9888 6.01273 17.0333C5.87274 17.0312 5.75574 17.0528 5.66171 17.098C5.42699 17.1878 5.31069 17.1627 5.3128 17.0228C5.50368 16.7456 5.76348 16.5395 6.09222 16.4045C6.09293 16.3578 6.11661 16.3348 6.16327 16.3355C6.20993 16.3362 6.23326 16.3366 6.23326 16.3366C6.23397 16.2899 6.25765 16.2669 6.30431 16.2676C6.39904 16.1757 6.44641 16.1298 6.44641 16.1298C6.58639 16.1319 6.70375 16.087 6.79848 15.9951C7.31528 15.7695 7.71401 15.6355 7.99468 15.5931C8.32272 15.5047 8.62672 15.4626 8.90669 15.4668C9.18666 15.471 9.51329 15.476 9.88658 15.4816C10.45 15.2567 10.9895 15.0782 11.5048 14.946C12.0209 14.7671 12.5367 14.6115 13.0521 14.4793C13.6148 14.3011 14.2002 14.1699 14.8082 14.0857C15.4636 13.9556 16.2123 13.8269 17.0543 13.6996C16.6329 13.7865 16.2116 13.8735 15.7902 13.9605C15.4162 14.0015 15.0652 14.0663 14.7372 14.1546C13.9404 14.376 13.5176 14.5563 13.4688 14.6956C13.8902 14.6086 14.2649 14.5209 14.5929 14.4325C14.921 14.3441 15.249 14.2557 15.5771 14.1673C15.9051 14.0789 16.2328 14.0139 16.5601 13.9721C16.8875 13.9304 17.2851 13.8664 17.7532 13.7801C17.8458 13.8282 17.7984 13.8741 17.6111 13.918C17.4711 13.9159 17.3774 13.9378 17.33 13.9838C17.704 13.9427 18.2413 13.9042 18.942 13.8681C19.69 13.786 20.4846 13.7047 21.3259 13.624C22.1206 13.5427 22.9149 13.4846 23.7088 13.4499C24.5035 13.3686 25.1341 13.3314 25.6007 13.3385C25.9754 13.2508 26.2098 13.1843 26.3038 13.1391C26.3978 13.0938 26.6089 13.027 26.9369 12.9386C28.242 13.0516 29.3629 12.9985 30.2997 12.7793C31.2371 12.5134 32.1965 12.3412 33.1778 12.2627C33.4578 12.2669 33.5041 12.291 33.3167 12.3348C33.1294 12.3786 32.9424 12.3992 32.7557 12.3963C33.1283 12.4486 33.432 12.4299 33.6667 12.3401C33.9014 12.2503 34.2058 12.1849 34.5798 12.1438C34.4405 12.0951 34.3001 12.1163 34.1587 12.2075C34.0181 12.252 33.7844 12.2718 33.4578 12.2669C33.7391 12.1778 34.1602 12.1142 34.7208 12.076C35.2821 11.9911 35.7035 11.9041 35.9849 11.815C34.9576 11.8462 34.0707 11.8561 33.3241 11.8449C32.6249 11.7876 31.738 11.7976 30.6634 11.8747C31.084 11.8344 31.5743 11.8184 32.1343 11.8269C32.6949 11.7887 33.2322 11.7501 33.7462 11.7112L36.4759 11.7524C36.9899 11.7135 37.4338 11.6735 37.8078 11.6325C38.2285 11.5922 38.6262 11.5282 39.0009 11.4405C38.4409 11.432 37.647 11.4667 36.619 11.5445C35.5918 11.5757 34.6812 11.6086 33.8872 11.6433C33.6539 11.6398 33.5839 11.6387 33.6773 11.6402C33.7713 11.5949 33.8416 11.5726 33.8883 11.5733C33.5617 11.5684 33.2113 11.5865 32.8374 11.6275C32.4641 11.6218 32.0441 11.6155 31.5775 11.6085C31.7648 11.5646 32.0218 11.5452 32.3485 11.5501C32.6758 11.5084 33.0261 11.4903 33.3994 11.4959C33.7734 11.4549 34.1237 11.4369 34.4503 11.4418C34.8243 11.4008 35.105 11.3583 35.2924 11.3145C35.1057 11.3117 34.8491 11.3078 34.5224 11.3029C34.1958 11.2979 33.8688 11.3163 33.5415 11.3581C33.2615 11.3539 33.0045 11.3733 32.7705 11.4164C32.5839 11.4136 32.4902 11.4356 32.4895 11.4822C32.2569 11.432 31.9069 11.4268 31.4396 11.4664C31.0197 11.46 30.599 11.5004 30.1777 11.5873C30.3169 11.6361 30.6199 11.664 31.0865 11.6711C30.8525 11.7142 30.4318 11.7545 29.8245 11.792C29.2646 11.7836 28.681 11.7981 28.0737 11.8356C27.4664 11.8731 26.9057 11.9113 26.3917 11.9503C25.9251 11.9432 25.6445 11.9857 25.5497 12.0776C25.689 12.1263 25.9456 12.1302 26.3196 12.0892C26.6943 12.0015 27.045 11.9601 27.3716 11.965C26.9503 12.052 26.5293 12.1157 26.1086 12.156C25.688 12.1963 25.2436 12.2596 24.7756 12.3459C24.2609 12.4315 23.7466 12.4937 23.2326 12.5327C22.7653 12.5723 22.2276 12.6342 21.6196 12.7183C21.527 12.6703 21.5277 12.6236 21.6217 12.5784C21.7165 12.4864 21.8575 12.4186 22.0448 12.3747C22.2329 12.2842 22.4206 12.217 22.608 12.1732C22.842 12.13 23.0293 12.0862 23.17 12.0417C23.03 12.0395 22.8664 12.0604 22.679 12.1043C22.539 12.1021 22.399 12.1 22.259 12.0979C22.2598 12.0513 22.4234 12.0304 22.75 12.0353C23.1233 12.0409 23.427 12.0222 23.661 11.9791C23.895 11.9359 24.0353 11.9147 24.082 11.9154C24.1294 11.8694 24.2234 11.8242 24.3641 11.7796C24.0841 11.7754 23.8971 11.7959 23.8031 11.8412C23.7098 11.8398 23.4998 11.8366 23.1732 11.8317C23.2672 11.7864 23.4309 11.7656 23.6642 11.7691C23.8975 11.7726 24.1078 11.7524 24.2952 11.7086C23.0806 11.7836 21.9819 11.907 20.9992 12.0789C20.0639 12.2048 19.1536 12.2144 18.2684 12.1077C17.3338 12.1869 16.4685 12.3139 15.6724 12.4886C14.877 12.6166 14.1047 12.7683 13.3553 12.9437C12.6532 13.0731 11.9742 13.2262 11.3181 13.403C10.7087 13.5805 10.0756 13.7809 9.41882 14.0044C9.41882 14.0044 9.3718 14.027 9.27778 14.0723C9.3711 14.0737 9.41811 14.051 9.41882 14.0044C9.65353 13.9146 9.88754 13.8714 10.1209 13.875C10.3549 13.8318 10.5892 13.7653 10.8239 13.6755C11.1053 13.5864 11.3627 13.5437 11.596 13.5472C11.8766 13.5047 12.1106 13.4616 12.298 13.4178C12.3913 13.4192 12.2273 13.4634 11.8059 13.5503C11.4312 13.638 10.9862 13.748 10.4708 13.8802C10.2361 13.97 9.9784 14.0362 9.69773 14.0786C9.41706 14.121 9.15936 14.1872 8.92465 14.277C8.68993 14.3668 8.4789 14.4336 8.29155 14.4774C8.15086 14.522 8.03386 14.5435 7.94054 14.5421C7.89387 14.5414 7.82353 14.5637 7.7295 14.609C7.68214 14.6549 7.61144 14.7005 7.51742 14.7458C7.42268 14.8377 7.32866 14.8829 7.23533 14.8815C7.14131 14.9268 7.07061 14.9724 7.02325 15.0183C7.02325 15.0183 6.97623 15.041 6.88221 15.0862C6.64749 15.176 6.50645 15.2439 6.45908 15.2899C6.41172 15.3358 6.55241 15.2913 6.88115 15.1562C6.73976 15.2474 6.55135 15.3613 6.31593 15.4977C6.12788 15.5882 5.91649 15.6784 5.68178 15.7682C5.49372 15.8587 5.2583 15.9952 4.97552 16.1776L4.76238 16.3844C4.71571 16.3837 4.64502 16.4293 4.55029 16.5212L4.83448 16.2455L4.90553 16.1765C4.90553 16.1765 4.85851 16.1991 4.76449 16.2444C4.71783 16.2437 4.67081 16.2663 4.62345 16.3123C4.57608 16.3582 4.52907 16.3809 4.48241 16.3802C4.48241 16.3802 4.45872 16.4031 4.41136 16.4491C4.08121 16.6775 3.79666 16.9765 3.55772 17.3463C3.55631 17.4396 3.53228 17.4859 3.48562 17.4852C3.48491 17.5319 3.46088 17.5782 3.41351 17.6242C3.41351 17.6242 3.41316 17.6475 3.41246 17.6942C3.41175 17.7408 3.38807 17.7638 3.34141 17.7631C3.34141 17.7631 3.34106 17.7864 3.34035 17.8331C3.33894 17.9264 3.31456 17.9961 3.26719 18.042C3.26508 18.182 3.23999 18.2983 3.19192 18.3909L3.18664 18.7409C3.18593 18.7875 3.20856 18.8346 3.25452 18.8819L3.25346 18.9519L3.25452 18.8819L3.25557 18.8119C3.25698 18.7186 3.25839 18.6253 3.2598 18.532C3.30857 18.3927 3.33261 18.3464 3.3319 18.393L3.32873 18.603C3.32733 18.6963 3.3496 18.7667 3.39556 18.814L3.3945 18.884L3.39344 18.954C3.39204 19.0473 3.41431 19.1177 3.46027 19.1651C3.54937 19.4464 3.63917 19.6811 3.72967 19.8692C3.95664 20.2927 4.13941 20.5521 4.27799 20.6476L4.20905 20.5765C4.16239 20.5758 4.11608 20.5518 4.07013 20.5044L3.86332 20.2913L3.58758 20.0071C3.49425 20.0057 3.44654 20.075 3.44442 20.2149C3.58018 20.497 3.71629 20.7558 3.85276 20.9912C3.98992 21.1799 4.12674 21.392 4.2632 21.6275C4.40037 21.8162 4.53754 22.005 4.6747 22.1937C4.81258 22.3358 4.97343 22.5016 5.15726 22.6911C5.20251 22.7851 5.27109 22.8795 5.36301 22.9742C5.45492 23.0689 5.54719 23.1403 5.63981 23.1884C5.77697 23.3772 5.93782 23.5429 6.12236 23.6857C6.49001 24.0647 6.88171 24.3973 7.29743 24.6836C7.06624 24.5401 6.83504 24.3966 6.60385 24.2531C6.41932 24.1103 6.21181 23.9438 5.98132 23.7536C5.75083 23.5635 5.51998 23.3966 5.28879 23.2531C5.10496 23.0636 4.89815 22.8505 4.66837 22.6137C4.43858 22.3768 4.20844 22.1634 3.97795 21.9732C3.79483 21.7371 3.58873 21.4773 3.35964 21.1938C3.26914 21.0057 3.15495 20.8406 3.01708 20.6985C2.92587 20.5571 2.83536 20.3691 2.74556 20.1344C2.65576 19.8997 2.58929 19.6653 2.54615 19.4313C2.50301 19.1973 2.4832 18.9636 2.48672 18.7303C2.44217 18.5896 2.42165 18.4026 2.42517 18.1693L2.43046 17.8194C2.43186 17.726 2.43292 17.656 2.43362 17.6094C2.48099 17.5634 2.50538 17.4938 2.50679 17.4005C2.50819 17.3071 2.53258 17.2375 2.57995 17.1915C2.58136 17.0982 2.60574 17.0286 2.65311 16.9826C2.65452 16.8893 2.70329 16.75 2.79943 16.5648C2.89416 16.4729 2.94188 16.4036 2.94258 16.3569C3.03731 16.265 3.08468 16.2191 3.08468 16.2191C3.13275 16.1264 3.18047 16.0571 3.22783 16.0112C3.2752 15.9652 3.32291 15.8959 3.37098 15.8033L3.58413 15.5965C3.67886 15.5046 3.72623 15.4586 3.72623 15.4586C3.82025 15.4134 3.91463 15.3448 4.00936 15.2529C4.10409 15.161 4.17479 15.1154 4.22145 15.1161C4.26882 15.0701 4.2925 15.0471 4.2925 15.0471C4.33916 15.0478 4.38617 15.0252 4.43354 14.9793L4.50353 14.9803L4.57458 14.9114C4.62124 14.9121 4.64457 14.9124 4.64457 14.9124C4.69194 14.8665 4.73895 14.8439 4.78561 14.8446C4.83298 14.7986 4.97402 14.7307 5.20873 14.6409C5.53888 14.4125 5.845 14.2305 6.12708 14.0947C6.40916 13.959 6.69124 13.8232 6.97332 13.6874C7.2547 13.5983 7.51274 13.5089 7.74746 13.4191C8.02954 13.2833 8.28794 13.1706 8.52265 13.0808C9.03875 12.9019 9.55448 12.7463 10.0699 12.614C10.5853 12.4818 11.1706 12.3506 11.826 12.2205C11.5927 12.217 11.4764 12.1919 11.4771 12.1452C11.5245 12.0993 11.5718 12.0533 11.6192 12.0074C11.7132 11.9621 11.7606 11.9161 11.7613 11.8695C11.8087 11.8235 11.7157 11.7988 11.4824 11.7953C11.2017 11.8377 11.1077 11.883 11.2003 11.931C11.3403 11.9331 11.2929 11.9791 11.0582 12.0689C10.8242 12.112 10.6372 12.1325 10.4972 12.1304C10.3572 12.1283 10.2406 12.1266 10.1473 12.1252C10.008 12.0764 10.126 11.9848 10.5014 11.8505C9.00335 12.1546 8.20623 12.3992 8.1101 12.5845C7.2193 12.8511 6.44517 13.1194 5.78768 13.3895C5.17756 13.6137 4.63744 13.8389 4.1673 14.0651C4.07257 14.1571 4.02521 14.203 4.02521 14.203C3.93048 14.2949 3.85978 14.3405 3.81312 14.3398L3.59997 14.5466C3.55261 14.5926 3.50559 14.6152 3.45893 14.6145C3.45893 14.6145 3.43525 14.6375 3.38788 14.6835L3.17474 14.8903L2.9616 15.0971C2.91423 15.143 2.86686 15.189 2.8195 15.2349C2.81879 15.2816 2.79476 15.3279 2.74739 15.3739L2.67635 15.4428L2.67529 15.5128C2.62863 15.5121 2.60495 15.5351 2.60424 15.5817C2.60424 15.5817 2.58091 15.5814 2.53425 15.5807C2.53354 15.6273 2.50951 15.6736 2.46214 15.7196C2.36741 15.8115 2.32005 15.8575 2.32005 15.8575C2.22391 16.0427 2.17549 16.1587 2.17478 16.2053C2.08005 16.2972 2.00865 16.3895 1.96058 16.4821C1.95988 16.5288 1.93584 16.5751 1.88848 16.621L1.88636 16.761C1.839 16.807 1.81496 16.8533 1.81426 16.9C1.81356 16.9466 1.78952 16.9929 1.74215 17.0389C1.74004 17.1789 1.7153 17.2718 1.66794 17.3178L1.66477 17.5278L1.6616 17.7378C1.61423 17.7837 1.5895 17.8767 1.58738 18.0167C1.58668 18.0633 1.56264 18.1096 1.51528 18.1556C1.51528 18.1556 1.51457 18.2023 1.51317 18.2956L1.51 18.5055L1.50577 18.7855L1.50155 19.0655C1.5475 19.1129 1.56978 19.1832 1.56837 19.2765L1.5652 19.4865C1.5645 19.5332 1.56379 19.5798 1.56309 19.6265C1.60975 19.6272 1.63273 19.6509 1.63202 19.6975C1.63062 19.7909 1.65289 19.8612 1.69885 19.9086L1.69674 20.0485C1.74199 20.1426 1.76426 20.2129 1.76356 20.2596C1.76356 20.2596 1.78618 20.3066 1.83144 20.4006C1.83073 20.4473 1.85336 20.4943 1.89932 20.5417L1.8972 20.6816C1.94316 20.729 1.96579 20.776 1.96508 20.8227C1.96438 20.8693 1.98701 20.9164 2.03296 20.9637L2.2366 21.3868C2.28256 21.4342 2.30519 21.4812 2.30448 21.5279C2.35044 21.5752 2.3964 21.6226 2.44235 21.67C2.48761 21.764 2.53286 21.858 2.57811 21.9521C2.62337 22.0461 2.66862 22.1401 2.71387 22.2341C2.80438 22.4222 2.87261 22.5399 2.91857 22.5873C3.00907 22.7753 3.05397 22.8927 3.05327 22.9393L3.19114 23.0814C3.18973 23.1748 3.21236 23.2218 3.25902 23.2225C3.30427 23.3165 3.32655 23.3869 3.32584 23.4335C3.3725 23.4342 3.41846 23.4816 3.46371 23.5756L3.25691 23.3625C3.21165 23.2684 3.14307 23.1741 3.05116 23.0793C2.95854 23.0313 2.88925 22.9835 2.84329 22.9362C2.844 22.8895 2.82137 22.8425 2.77541 22.7951C2.72946 22.7478 2.6835 22.7004 2.63754 22.653C2.63825 22.6064 2.61562 22.5594 2.56966 22.512C2.15675 22.039 1.83752 21.5442 1.61196 21.0274C1.5667 20.9333 1.5211 20.8627 1.47514 20.8153C1.42918 20.7679 1.38358 20.6972 1.33832 20.6032C1.34044 20.4632 1.29624 20.2992 1.20573 20.1111C1.11523 19.9231 1.07103 19.7591 1.07314 19.6191C0.984047 19.3377 0.940202 19.1504 0.941611 19.057C0.945131 18.8237 0.924618 18.6367 0.880069 18.496C0.881477 18.4027 0.882886 18.3094 0.884294 18.2161C0.932364 18.1235 0.957103 18.0305 0.958511 17.9372C0.962032 17.7039 0.987827 17.5409 1.0359 17.4483C1.03731 17.355 1.03836 17.285 1.03907 17.2383C1.08643 17.1923 1.11082 17.1227 1.11223 17.0294C1.15959 16.9834 1.18398 16.9138 1.18539 16.8205C1.18609 16.7738 1.18644 16.7505 1.18644 16.7505C1.2331 16.7512 1.25679 16.7282 1.25749 16.6815C1.2582 16.6349 1.28223 16.5886 1.3296 16.5426C1.37767 16.45 1.40205 16.3803 1.40276 16.3337C1.44942 16.3344 1.42468 16.4274 1.32854 16.6126L1.32537 16.8226C1.27801 16.8685 1.25397 16.9148 1.25327 16.9615L1.32431 16.8926C1.32502 16.8459 1.37344 16.73 1.46958 16.5447C1.56572 16.3595 1.63818 16.1972 1.68695 16.0579C1.78168 15.966 1.8294 15.8967 1.8301 15.8501C1.87747 15.8041 1.92483 15.7582 1.9722 15.7122C2.01957 15.6662 2.04325 15.6433 2.04325 15.6433C2.04395 15.5966 2.06799 15.5503 2.11535 15.5043C2.11606 15.4577 2.14009 15.4114 2.18746 15.3654C2.23553 15.2728 2.30693 15.1805 2.40166 15.0886L2.47271 15.0197C2.42605 15.019 2.35535 15.0646 2.26062 15.1565C2.25991 15.2032 2.2122 15.2724 2.11747 15.3644C2.11747 15.3644 2.09378 15.3873 2.04642 15.4333C2.23658 15.2028 2.4264 14.9956 2.61586 14.8118C2.80532 14.628 2.9711 14.4671 3.1132 14.3293C3.58615 13.9164 3.96366 13.642 4.24575 13.5063C4.62256 13.2786 4.97569 13.0739 5.30513 12.8922C5.63458 12.7105 5.94034 12.5517 6.22242 12.416C6.55116 12.2809 6.85658 12.1455 7.13866 12.0097C7.42074 11.874 7.70247 11.7616 7.98384 11.6725C8.26522 11.5834 8.5466 11.4943 8.82797 11.4052C9.11005 11.2694 9.36845 11.1566 9.60317 11.0668C10.5887 10.7083 11.6205 10.3739 12.6987 10.0634C13.8242 9.70703 14.9249 9.44361 16.001 9.27316C15.581 9.26682 15.2067 9.33118 14.8779 9.46624C14.5499 9.55463 14.1285 9.64162 13.6138 9.72719C14.4106 9.50586 15.324 9.28628 16.3541 9.06847C17.3842 8.85065 18.4372 8.65652 19.5132 8.48607C20.5426 8.31492 21.5016 8.16604 22.3903 8.03943C23.3256 7.91353 24.0507 7.80779 24.5653 7.72222C24.7067 7.63101 24.8937 7.61049 25.1263 7.66067C25.3596 7.6642 25.64 7.64509 25.9673 7.60336C25.7354 7.50651 25.1755 7.49806 24.2875 7.57801C24.4282 7.53346 24.5689 7.48891 24.7095 7.44436C24.8976 7.35386 24.6876 7.35069 24.0796 7.43486C24.4077 7.34646 24.8053 7.28245 25.2727 7.24283C25.7873 7.15726 26.3487 7.07239 26.9567 6.98822C27.564 6.95071 28.1713 6.9132 28.7786 6.8757C29.3859 6.83819 29.9469 6.77665 30.4616 6.69107C30.229 6.64089 30.1127 6.6158 30.1127 6.6158C30.1134 6.56914 30.1378 6.4995 30.1858 6.40688C30.6531 6.36726 31.1901 6.35202 31.7967 6.36118C32.404 6.32367 32.8946 6.28441 33.2686 6.24338C33.7826 6.20446 34.1093 6.20939 34.2485 6.25816C34.4345 6.30764 34.8311 6.31363 35.4384 6.27612C36.0931 6.19266 36.934 6.13534 37.9613 6.10417C38.9892 6.02634 40.1102 5.97325 41.3241 5.9449C41.2767 5.99085 41.0664 6.01101 40.6931 6.00538C40.3665 6.00045 40.0161 6.0185 39.6421 6.05953C41.276 6.03751 42.7935 5.99041 44.1948 5.91821C45.6434 5.80006 47.1846 5.72997 48.8185 5.70796C46.4868 5.57943 44.0604 5.54281 41.5393 5.59811C39.0189 5.60674 36.5681 5.63976 34.187 5.69717C34.749 5.56564 35.5667 5.50797 36.6399 5.52417C37.7598 5.54107 38.8333 5.53393 39.8606 5.50276L52.3891 5.69183C52.3432 5.64447 52.2036 5.61903 51.9702 5.61551C51.7836 5.61269 51.597 5.60987 51.4103 5.60705C52.2043 5.57236 53.0915 5.53908 54.0721 5.50721C55.0994 5.47604 56.0093 5.48977 56.8018 5.5484C56.9885 5.55122 57.0118 5.55157 56.8718 5.54946C56.7792 5.50139 56.7795 5.47806 56.8729 5.47947C57.1535 5.43703 57.4339 5.41793 57.7138 5.42215C57.9938 5.42638 58.2738 5.4306 58.5537 5.43483L59.3936 5.4475L59.5336 5.44961L59.6747 5.38173C59.7213 5.38244 59.6276 5.40436 59.3936 5.4475C59.207 5.44468 59.207 5.44468 59.3936 5.4475L59.4647 5.37857L59.8846 5.3849C60.4453 5.34669 61.0056 5.33181 61.5655 5.34026C62.1728 5.30275 62.7571 5.24156 63.3185 5.15669C64.4864 5.08097 65.6307 5.02823 66.7512 4.99847C67.9192 4.92275 69.1105 4.84739 70.3251 4.77237L73.8978 4.61627C74.5058 4.5321 75.0898 4.49424 75.6497 4.50269C76.257 4.46518 76.8643 4.42768 77.4716 4.39017C78.6862 4.31516 79.8772 4.26312 81.0444 4.23406C82.2583 4.20571 83.4726 4.15403 84.6872 4.07901C85.3411 4.04221 85.9481 4.02803 86.508 4.03648C87.1153 3.99898 87.7459 3.96182 88.3999 3.92502C89.0539 3.88822 89.6608 3.87404 90.2208 3.88249C90.8281 3.84498 91.4587 3.80783 92.1127 3.77103C93.3273 3.69601 94.5645 3.66801 95.8243 3.68702C97.0849 3.65937 98.3458 3.60839 99.6071 3.53408L103.39 3.38115C104.044 3.34435 104.674 3.33052 105.281 3.33968C105.887 3.34883 106.518 3.33501 107.172 3.2982C108.479 3.2246 109.763 3.1973 111.023 3.21631C112.284 3.18866 113.568 3.16137 114.875 3.13442C125.286 2.91816 135.812 2.79699 146.454 2.7709C157.142 2.74551 167.992 2.86257 179.002 3.12208C178.907 3.26065 178.439 3.3236 177.599 3.31093C178.393 3.3229 179.209 3.33522 180.049 3.3479C180.889 3.36057 181.752 3.39693 182.638 3.45697L187.747 3.53408L193.067 3.61436L195.726 3.65449C196.145 3.70749 196.565 3.73716 196.985 3.7435C197.452 3.75054 197.895 3.75723 198.315 3.76357C198.268 3.76286 198.152 3.7611 197.965 3.75829C197.778 3.75547 197.592 3.72932 197.406 3.67984C199.224 3.80063 201.113 3.89914 203.072 3.97538C205.032 4.00495 207.061 4.05892 209.16 4.13727C211.259 4.26228 213.357 4.38729 215.456 4.5123C217.601 4.59135 219.77 4.69409 221.962 4.82051L223.571 4.8448C223.757 4.89428 224.037 4.92183 224.41 4.92747L225.18 4.93909C225.739 4.9942 226.275 5.04896 226.788 5.10337C227.348 5.11182 227.907 5.1436 228.467 5.19871C229.539 5.26157 230.588 5.32407 231.614 5.38622C232.687 5.44908 233.759 5.53527 234.831 5.64479C235.344 5.65253 235.857 5.68361 236.369 5.73802C236.929 5.74647 237.466 5.7779 237.978 5.83231C238.211 5.88249 238.467 5.90969 238.747 5.91392C239.027 5.91814 239.284 5.92201 239.517 5.92553C239.703 5.97501 239.982 6.00257 240.356 6.0082ZM30.7204 8.09514C30.5338 8.09232 30.2534 8.11142 29.8795 8.15245C29.5062 8.14682 29.1325 8.16452 28.7585 8.20555C28.3845 8.24657 28.0805 8.28866 27.8465 8.3318C27.6132 8.32828 27.5432 8.32722 27.6365 8.32863C27.9165 8.33285 28.2431 8.33778 28.6164 8.34342C28.9904 8.30239 29.3411 8.26101 29.6684 8.21928C29.9958 8.17754 30.2527 8.15809 30.4394 8.1609C30.6734 8.11776 30.7671 8.09584 30.7204 8.09514ZM27.8624 7.28192C27.3484 7.32083 26.9744 7.36186 26.7404 7.405C26.5537 7.40218 26.3667 7.4227 26.1794 7.46654C26.5534 7.42551 26.9037 7.40747 27.2303 7.41239C27.5569 7.41732 27.7676 7.37383 27.8624 7.28192ZM20.842 8.57613C20.3273 8.66171 19.8593 8.74799 19.438 8.83497C19.0173 8.8753 18.6663 8.94001 18.3849 9.02911C19.4602 8.90532 20.4193 8.75644 21.262 8.58247C21.6833 8.49548 22.1044 8.43183 22.525 8.39151C22.9923 8.35189 23.5067 8.28964 24.068 8.20477C24.2087 8.16022 24.2557 8.13759 24.209 8.13689C24.209 8.13689 24.092 8.15846 23.858 8.2016C23.3433 8.28717 22.829 8.34942 22.315 8.38834C21.8477 8.42796 21.3567 8.49055 20.842 8.57613ZM18.8727 9.17648C18.3581 9.26206 17.9134 9.34869 17.5387 9.43638C17.2106 9.52478 17.1166 9.57003 17.2566 9.57214C17.538 9.48304 17.889 9.41833 18.3096 9.37801C18.7303 9.33769 19.1746 9.27438 19.6427 9.1881C20.064 9.10112 20.4613 9.06044 20.8346 9.06608C21.2086 9.02505 21.513 8.95963 21.7477 8.86983C21.4211 8.8649 20.9771 8.90487 20.4157 8.98975C19.9018 9.02866 19.3874 9.09091 18.8727 9.17648ZM10.4325 11.7794C10.4799 11.7335 10.4336 11.7094 10.2936 11.7073C10.1536 11.7052 10.1073 11.6812 10.1547 11.6352C9.68663 11.7215 9.38192 11.8102 9.24053 11.9014C9.1458 11.9934 8.98108 12.0842 8.74636 12.174L10.4325 11.7794ZM11.9129 11.1017C12.101 11.0112 12.2423 10.92 12.3371 10.8281C12.4311 10.7828 12.5015 10.7605 12.5481 10.7612C12.5955 10.7153 12.6899 10.6467 12.8312 10.5555C12.8779 10.5562 13.0419 10.512 13.3233 10.4229C13.4166 10.4243 13.6973 10.3819 14.1653 10.2956C13.9313 10.3387 13.8143 10.3603 13.8143 10.3603C13.815 10.3136 13.8387 10.2906 13.8854 10.2914C13.9794 10.2461 14.0264 10.2235 14.0264 10.2235C14.0271 10.1768 13.9108 10.1517 13.6775 10.1482C13.3961 10.2373 13.0914 10.326 12.7634 10.4144C12.4827 10.4569 12.155 10.5219 11.7803 10.6096C11.4523 10.698 11.1239 10.8097 10.7951 10.9448C10.4671 11.0332 10.1391 11.1216 9.81103 11.21C9.15425 11.4334 8.59114 11.635 8.12171 11.8146C7.65158 12.0408 7.34546 12.2229 7.20337 12.3608C7.43808 12.271 7.64947 12.1808 7.83752 12.0903C8.07224 12.0005 8.28362 11.9103 8.47167 11.8198L9.52789 11.4157C10.138 11.1916 11.0518 10.9487 12.2692 10.687C12.3152 10.7344 12.0801 10.8475 11.564 11.0264C11.3293 11.1162 11.1183 11.183 10.9309 11.2269C10.7436 11.2707 10.6495 11.316 10.6488 11.3626C11.3509 11.2332 11.7722 11.1462 11.9129 11.1017ZM13.3806 11.2638C13.0059 11.3515 12.7945 11.4417 12.7465 11.5343C12.6984 11.6269 12.8384 11.629 13.1664 11.5406C13.0738 11.4926 13.0978 11.4463 13.2385 11.4017C13.4259 11.3579 13.4732 11.3119 13.3806 11.2638ZM16.2503 11.3072C17.0923 11.1798 17.7951 11.0038 18.3585 10.7789C18.2185 10.7768 18.0782 10.798 17.9375 10.8426C17.7975 10.8404 17.8449 10.7945 18.0796 10.7047C17.5649 10.7903 17.1906 10.8546 16.9566 10.8978C16.7232 10.8942 16.5599 10.8918 16.4666 10.8904C16.3259 10.9349 16.1856 10.9561 16.0456 10.954C15.9056 10.9519 15.6483 10.9947 15.2736 11.0824C15.7416 10.9961 15.9519 10.9759 15.9046 11.0219C15.8572 11.0679 15.7165 11.1124 15.4825 11.1556C15.2478 11.2454 14.9431 11.3341 14.5684 11.4218C14.1944 11.4628 13.8907 11.4816 13.6574 11.478C13.656 11.5714 13.6316 11.641 13.5843 11.687C13.5376 11.6863 13.3262 11.7764 12.9501 11.9574C13.6055 11.8273 14.1905 11.7195 14.7052 11.6339C15.2672 11.5023 15.7823 11.3934 16.2503 11.3072ZM27.2739 9.16325C27.6479 9.12222 27.9982 9.10418 28.3248 9.1091C28.6988 9.06808 28.9562 9.02529 29.0969 8.98074C28.2089 9.06068 27.6012 9.12152 27.2739 9.16325ZM29.3768 8.98496C29.7515 8.89727 30.2888 8.85871 30.9888 8.86927C31.736 8.83388 32.2037 8.77093 32.3918 8.68042C31.6911 8.71652 31.1072 8.75438 30.6399 8.794C30.1725 8.83362 29.7515 8.89727 29.3768 8.98496ZM28.2644 8.47812C29.339 8.40099 30.4369 8.32422 31.5582 8.2478C32.7261 8.17208 33.8708 8.09601 34.992 8.01958C33.6382 8.04583 32.4006 8.09716 31.2793 8.17358C30.158 8.25 29.0601 8.32677 27.9854 8.4039C27.0508 8.48314 26.1625 8.58641 25.3205 8.71372C24.4792 8.79437 23.6612 8.87537 22.8665 8.95672C22.8665 8.95672 22.8902 8.93374 22.9376 8.88779C22.8902 8.93374 22.8199 8.95602 22.7265 8.95461C22.6332 8.9532 22.5395 8.97512 22.4455 9.02038C22.3988 9.01967 22.3289 9.01862 22.2355 9.01721C21.8622 9.01158 21.3483 9.05049 20.6936 9.13395C20.0856 9.21812 19.4543 9.30194 18.7996 9.3854C18.4256 9.42643 18.0749 9.46781 17.7476 9.50954C17.4203 9.55127 17.0926 9.61634 16.7645 9.70473C16.4372 9.74646 16.1332 9.78855 15.8525 9.83098C15.5719 9.87342 15.3145 9.91621 15.0805 9.95935C15.6885 9.87518 16.3195 9.8147 16.9735 9.77789C17.6274 9.74109 18.2821 9.65763 18.9375 9.5275C19.1715 9.48436 19.3581 9.48718 19.4974 9.53595C19.684 9.53877 19.8944 9.51861 20.1284 9.47547C20.6431 9.38989 21.1111 9.30361 21.5324 9.21662C21.9538 9.12964 22.3518 9.0423 22.7265 8.95461L22.8665 8.95672C22.7725 9.00198 22.7721 9.02531 22.8655 9.02672C22.9588 9.02812 23.1224 9.00726 23.3565 8.96412C23.5905 8.92098 23.8241 8.90117 24.0574 8.90469C24.3381 8.86225 24.5248 8.86507 24.6174 8.91314C24.1034 8.95205 23.6124 9.01465 23.1444 9.10093C22.6771 9.14055 22.3034 9.15825 22.0234 9.15402C22.1154 9.24875 22.4413 9.30034 23.0012 9.30879C23.6106 9.1313 24.3597 8.97926 25.2484 8.85265C26.1837 8.72675 27.189 8.60191 28.2644 8.47812ZM35.5013 11.3877C35.7819 11.3452 36.1319 11.3505 36.5512 11.4035C37.0178 11.4105 37.2051 11.3667 37.1132 11.272C36.7866 11.267 36.4366 11.2618 36.0633 11.2561C35.7367 11.2512 35.5493 11.295 35.5013 11.3877ZM7.84308 16.3609C8.03113 16.2704 8.0785 16.2244 7.98518 16.223C7.79853 16.2202 7.61118 16.264 7.42313 16.3545C7.23437 16.4917 7.21034 16.538 7.35102 16.4935C7.49171 16.4489 7.65573 16.4047 7.84308 16.3609ZM25.6485 14.8094C25.8373 14.6722 25.7683 14.6012 25.4417 14.5962C25.067 14.6839 24.6693 14.7479 24.2487 14.7882C23.8287 14.7819 23.5481 14.8243 23.4067 14.9156C23.7807 14.8745 24.1543 14.8568 24.5276 14.8625C24.9009 14.8681 25.2745 14.8504 25.6485 14.8094ZM22.4957 14.9718C22.9157 14.9782 23.3597 14.9382 23.8277 14.8519C24.3431 14.7197 24.5778 14.6299 24.5318 14.5825C24.2971 14.6723 23.9461 14.737 23.4788 14.7766C23.0581 14.8169 22.7304 14.882 22.4957 14.9718ZM24.9581 14.1689C24.3501 14.253 23.9291 14.3167 23.6951 14.3598C23.5084 14.357 23.4618 14.3563 23.5551 14.3577C23.6484 14.3591 23.8117 14.3616 24.045 14.3651C24.3257 14.3227 24.6301 14.2573 24.9581 14.1689ZM14.9918 15.8387C15.7405 15.71 16.4418 15.6272 17.0958 15.5904C17.7504 15.5069 18.2651 15.4214 18.6398 15.3337C18.4525 15.3775 18.1718 15.42 17.7978 15.461C17.4245 15.4553 17.0275 15.4727 16.6069 15.513C16.2322 15.6007 15.8812 15.6654 15.5538 15.7071C15.2739 15.7029 15.0865 15.7468 14.9918 15.8387ZM16.1169 15.5056C16.585 15.4193 17.0523 15.3797 17.5189 15.3868C17.9862 15.3471 18.4305 15.2838 18.8519 15.1969C18.6653 15.194 18.4316 15.2138 18.1509 15.2563C17.9176 15.2528 17.6606 15.2722 17.38 15.3147C17.1459 15.3578 16.9119 15.4009 16.6779 15.4441C16.4446 15.4406 16.2576 15.4611 16.1169 15.5056ZM20.397 14.8701C19.9763 14.9105 19.859 14.9554 20.0449 15.0048C20.2316 15.0077 20.4416 15.0108 20.6749 15.0143C20.8155 14.9698 20.9559 14.9486 21.0959 14.9507C21.2366 14.9061 21.4706 14.863 21.7979 14.8213C21.7039 14.8665 21.4928 14.9333 21.1648 15.0217C20.8375 15.0635 20.8138 15.0864 21.0938 15.0907C21.3285 15.0009 21.6558 14.9591 22.0758 14.9655C22.4964 14.9252 22.7774 14.8594 22.9188 14.7682C22.5922 14.7632 22.4289 14.7608 22.4289 14.7608C22.8036 14.6731 23.2246 14.6094 23.6919 14.5698C24.2059 14.5309 24.5569 14.4662 24.745 14.3757C23.7644 14.4076 22.8064 14.4864 21.8711 14.6123C20.9364 14.6916 20.0718 14.7719 19.2771 14.8532C19.6978 14.8129 19.9788 14.7471 20.1202 14.6559C19.7929 14.6977 19.4422 14.739 19.0682 14.7801C18.7416 14.7751 18.5776 14.8193 18.5762 14.9127C18.7628 14.9155 19.0194 14.9194 19.3461 14.9243C19.7201 14.8833 20.0704 14.8652 20.397 14.8701ZM23.2593 15.4034C23.6333 15.3624 24.0303 15.345 24.4502 15.3513C24.9168 15.3584 25.4075 15.3191 25.9222 15.2335L25.9243 15.0936C24.9896 15.1728 24.0787 15.2291 23.1914 15.2623C22.3508 15.2963 21.6025 15.4017 20.9464 15.5785C21.3211 15.4908 21.6951 15.4498 22.0684 15.4554C22.4417 15.4611 22.8386 15.4437 23.2593 15.4034ZM22.8766 17.5679C23.5305 17.5311 23.9742 17.5144 24.2075 17.5179C24.4415 17.4748 24.5352 17.4529 24.4885 17.4522C24.4426 17.4048 23.9052 17.4434 22.8766 17.5679ZM21.4831 17.1268C22.5528 17.3763 24.2329 17.3783 26.5236 17.1328C26.3369 17.13 26.0799 17.1495 25.7526 17.1912C25.4726 17.187 25.216 17.1831 24.9827 17.1796C24.702 17.222 24.515 17.2425 24.4217 17.2411C24.3284 17.2397 24.4224 17.1945 24.7038 17.1054C24.0498 17.1422 23.4895 17.1571 23.0229 17.15C22.557 17.0963 22.0437 17.0886 21.4831 17.1268ZM25.6245 21.0397C25.8592 20.9499 26.1166 20.9071 26.3965 20.9114C26.6772 20.8689 27.0049 20.8039 27.3796 20.7162C26.7249 20.7996 26.1173 20.8605 25.5566 20.8987C25.0426 20.9376 24.3883 20.9977 23.5937 21.0791C23.4997 21.1243 23.4993 21.1477 23.5926 21.1491C23.6859 21.1505 23.8026 21.1522 23.9426 21.1543C24.0826 21.1565 24.1992 21.1582 24.2925 21.1596C24.4332 21.1151 24.5032 21.1161 24.5025 21.1628C24.1292 21.1572 23.8956 21.177 23.8015 21.2222C23.7075 21.2675 23.6598 21.3368 23.6584 21.4301C24.1264 21.3438 24.5008 21.2795 24.7814 21.237C25.1088 21.1953 25.3898 21.1295 25.6245 21.0397ZM39.9993 19.5065C39.72 19.4556 39.44 19.4513 39.1594 19.4938C38.8794 19.4896 38.5528 19.4846 38.1795 19.479C38.1795 19.479 38.2728 19.4804 38.4595 19.4832C38.6935 19.4401 38.9271 19.4203 39.1604 19.4238C39.3937 19.4273 39.5804 19.4301 39.7204 19.4322C39.907 19.435 40 19.4598 39.9993 19.5065ZM60.0062 15.8879C60.7994 15.8999 61.7793 15.9147 62.9458 15.9323C64.1597 15.9039 65.0937 15.8714 65.7476 15.8346C64.6744 15.8184 63.6479 15.8029 62.668 15.7881C61.6881 15.7733 60.8008 15.8066 60.0062 15.8879ZM62.5322 15.506C63.8847 15.5731 64.468 15.5819 64.282 15.5324C64.0968 15.4363 63.5135 15.4275 62.5322 15.506ZM65.5419 15.5514C65.9625 15.5111 66.3825 15.5174 66.8017 15.5704C67.221 15.6234 67.5713 15.6054 67.8527 15.5163C67.3387 15.5552 66.8954 15.5485 66.5228 15.4962C66.1502 15.4439 65.8232 15.4623 65.5419 15.5514ZM76.8869 15.3026C77.6809 15.2679 78.4508 15.2795 79.1967 15.3374C79.9899 15.3494 80.6902 15.3366 81.2975 15.2991C81.0175 15.2949 80.5976 15.2886 80.0376 15.2801C79.4777 15.2717 78.9177 15.2632 78.3578 15.2548C77.7979 15.2463 77.3542 15.263 77.0269 15.3047C76.7003 15.2998 76.6536 15.2991 76.8869 15.3026ZM73.8857 14.6972C74.7263 14.6632 75.6366 14.6536 76.6164 14.6684C77.6437 14.6373 78.6473 14.6291 79.6272 14.6439C80.6537 14.6594 81.634 14.6508 82.5679 14.6182C83.5485 14.5864 84.4361 14.5297 85.2308 14.4484C84.0169 14.4767 82.8033 14.4818 81.5901 14.4635C80.3769 14.4452 79.1167 14.4495 77.8095 14.4764C77.4362 14.4708 77.0626 14.4885 76.6886 14.5295C76.3153 14.5239 75.942 14.5182 75.5687 14.5126C75.1954 14.507 74.8217 14.5247 74.4478 14.5657C74.1211 14.5608 73.7708 14.5788 73.3968 14.6198C72.6495 14.6552 71.9489 14.6913 71.2949 14.7281C70.6417 14.7183 70.0351 14.7091 69.4751 14.7007C69.4285 14.7 69.4518 14.7003 69.5451 14.7017C69.6858 14.6572 69.5929 14.6324 69.2662 14.6275C68.3323 14.6601 67.118 14.7118 65.6235 14.7826C64.1763 14.8074 62.752 14.8559 61.3508 14.9281C62.05 14.9853 62.8666 14.9977 63.8005 14.9651C64.7811 14.9332 65.5977 14.9455 66.2502 15.0021C65.1297 15.0318 64.0794 15.0393 63.0995 15.0245C62.1663 15.0104 61.2327 15.0197 60.2988 15.0523L59.6689 15.0427L59.5289 15.0406L59.4589 15.0396L59.3889 15.0385L59.1789 15.0354L58.829 15.0301L57.4991 15.01C57.0325 15.003 56.5659 14.9959 56.0993 14.9889C55.6793 14.9825 55.2124 14.9988 54.6984 15.0377C55.0717 15.0434 55.3983 15.0483 55.6783 15.0525C56.0049 15.0575 56.2142 15.1073 56.3061 15.202C55.1883 15.0451 53.8592 14.9784 52.3187 15.0018C50.8248 15.026 49.5405 15.0766 48.4659 15.1537C49.5851 15.2173 50.7743 15.2819 52.0334 15.3476C53.2926 15.4132 54.5984 15.4796 55.9508 15.5467C56.2775 15.5516 56.6038 15.5799 56.9297 15.6315C57.2563 15.6364 57.5829 15.6413 57.9096 15.6463L58.9594 15.6621L59.5183 15.7406L60.1493 15.6801C60.8026 15.6899 61.4558 15.6998 62.1091 15.7096C62.8097 15.6735 63.487 15.6371 64.141 15.6003C63.7677 15.5947 63.3007 15.6109 62.7401 15.6492C62.2268 15.6414 61.7135 15.6337 61.2002 15.6259C60.9669 15.6224 60.7333 15.6422 60.4993 15.6853C60.266 15.6818 60.033 15.655 59.8004 15.6048L59.7304 15.6037L59.6604 15.6027L59.5204 15.6006L59.4504 15.5995L59.3105 15.5974L59.0305 15.5932C58.9372 15.5918 58.8672 15.5907 58.8205 15.59C58.7746 15.5426 58.7283 15.5186 58.6816 15.5179L59.1715 15.5253L59.4515 15.5295L59.5215 15.5306L59.6615 15.5327L59.7315 15.5337L59.8715 15.5359L60.7114 15.5485C60.9913 15.5528 61.2713 15.557 61.5513 15.5612C61.8319 15.5188 62.0889 15.4993 62.3222 15.5028L60.5024 15.4754L59.7325 15.4638L59.6625 15.4627L59.5226 15.4606L59.4526 15.4595C59.4533 15.4129 59.407 15.3888 59.3136 15.3874L59.1037 15.3843L59.3836 15.3885L59.4536 15.3895L59.5236 15.3906L59.6636 15.3927L59.8036 15.3948C59.9902 15.3976 60.1539 15.3768 60.2946 15.3322L61.2745 15.347C61.6011 15.3519 61.9044 15.3565 62.1844 15.3607C62.511 15.3657 62.8146 15.3469 63.0953 15.3045L66.035 15.3488C65.755 15.3446 65.4284 15.3397 65.0551 15.3341C64.6818 15.3284 64.6115 15.3507 64.8441 15.4009C65.404 15.4093 66.0106 15.4185 66.6639 15.4283C67.3645 15.3922 68.0414 15.3791 68.6947 15.389C69.3479 15.3988 69.9545 15.408 70.5145 15.4164C71.1218 15.3789 71.6357 15.34 72.0564 15.2997C71.9638 15.2516 71.7538 15.2485 71.4265 15.2902C71.0991 15.3319 70.9125 15.3291 70.8665 15.2817C71.7538 15.2485 72.4541 15.2357 72.9674 15.2434C73.5273 15.2519 74.1346 15.2144 74.7893 15.1309C74.5093 15.1267 74.2056 15.1454 73.8783 15.1872C73.5983 15.183 73.4357 15.1338 73.3905 15.0398C73.7638 15.0454 73.9271 15.0479 73.8804 15.0472C73.8811 15.0005 74.0452 14.9563 74.3725 14.9146C75.8197 14.8898 77.1962 14.9105 78.502 14.9769C79.8552 14.9973 81.1857 14.9708 82.4937 14.8971C81.5138 14.8824 80.4639 14.8665 79.344 14.8496C78.2242 14.8327 77.1039 14.8391 75.9834 14.8689L74.3035 14.8436C74.0229 14.886 73.7426 14.9051 73.4626 14.9009C73.2293 14.8974 72.9726 14.8935 72.6927 14.8893C72.1794 14.8815 71.6658 14.8971 71.1518 14.936C70.6385 14.9283 70.1486 14.9209 69.682 14.9138C70.0093 14.8721 70.4063 14.8547 70.8729 14.8618C71.3862 14.8695 71.8994 14.8773 72.4127 14.885C72.9267 14.8461 73.4403 14.8305 73.9536 14.8383C74.4669 14.846 74.9105 14.8294 75.2845 14.7884C74.9579 14.7834 74.6779 14.7792 74.4446 14.7757C74.2586 14.7262 74.0724 14.7001 73.8857 14.6972ZM118.812 15.9353L120.072 15.9543L122.592 15.9923C123.478 16.0057 124.295 16.018 125.041 16.0293C125.835 15.9946 126.559 15.9589 127.213 15.9221C126.327 15.9087 125.486 15.9193 124.693 15.954C123.946 15.9428 123.176 15.9311 122.383 15.9192L120.073 15.8843C119.699 15.9253 119.302 15.9427 118.882 15.9364C118.509 15.9307 118.112 15.9247 117.692 15.9184L118.812 15.9353ZM111.939 16.7417C115.442 16.6078 118.897 16.52 122.304 16.4781C125.713 16.3895 129.121 16.3009 132.53 16.2123C129.029 16.2528 125.55 16.317 122.095 16.4049C118.688 16.4468 115.233 16.5347 111.73 16.6685C110.89 16.7025 110.026 16.7361 109.138 16.7694C108.299 16.7567 107.458 16.7674 106.618 16.8014C106.197 16.8417 105.777 16.8587 105.357 16.8524C104.937 16.846 104.493 16.8627 104.026 16.9023C103.606 16.8959 103.186 16.9129 102.765 16.9533C102.345 16.9469 101.925 16.9639 101.504 17.0042C99.7762 17.0715 98.0716 17.1391 96.3904 17.2071C94.7099 17.2284 93.029 17.2731 91.3478 17.341C93.029 17.2731 94.7332 17.2288 96.4604 17.2082C98.1883 17.1409 99.9161 17.0736 101.644 17.0064C102.064 17.0127 102.484 17.019 102.904 17.0254C103.325 16.985 103.769 16.9451 104.236 16.9055C104.656 16.9118 105.076 16.9181 105.496 16.9245C105.916 16.8841 106.36 16.8675 106.827 16.8745C107.667 16.8406 108.507 16.8299 109.347 16.8426C110.235 16.8093 111.099 16.7757 111.939 16.7417ZM163.806 3.4528C164.506 3.46337 165.205 3.47393 165.905 3.48449C166.606 3.44839 167.306 3.43562 168.006 3.44619L165.067 3.40182L163.597 3.37964L162.127 3.35746L156.248 3.26873C154.287 3.28582 152.35 3.27993 150.437 3.25106C148.571 3.22289 146.681 3.2177 144.767 3.23549C142.853 3.25328 140.962 3.27142 139.095 3.28992C137.228 3.30841 135.361 3.32691 133.494 3.3454C131.626 3.41055 129.758 3.45238 127.891 3.47087C126.071 3.44341 124.251 3.46261 122.43 3.52847C120.609 3.59433 118.787 3.66019 116.966 3.72605C115.192 3.74595 113.418 3.78918 111.644 3.85575L106.391 3.9865C105.924 4.02612 105.48 4.06609 105.059 4.10642C104.639 4.10008 104.196 4.09339 103.729 4.08635C103.309 4.12667 102.865 4.16665 102.397 4.20626C101.977 4.19993 101.557 4.19359 101.137 4.18725C99.4095 4.25452 97.6816 4.32179 95.9538 4.38906C94.2725 4.45703 92.568 4.52465 90.8401 4.59192L88.3172 4.76387C87.8973 4.75753 87.477 4.77452 87.0563 4.81485C86.683 4.80921 86.2861 4.82656 85.8654 4.86688C85.0248 4.90087 84.1842 4.93485 83.3436 4.96884C82.503 5.00283 81.6857 5.03716 80.8917 5.07186C80.5644 5.11359 80.3534 5.18041 80.2587 5.27232C80.2113 5.31828 79.9543 5.33774 79.4877 5.3307C79.4877 5.3307 79.5577 5.33175 79.6977 5.33387C79.8383 5.28932 79.9787 5.2681 80.1187 5.27021C80.2594 5.22566 80.3297 5.20339 80.3297 5.20339C80.3771 5.15743 80.2608 5.13234 79.9808 5.12812C79.1861 5.20947 78.3685 5.26714 77.5279 5.30112C76.6873 5.33511 75.8467 5.36909 75.0061 5.40308C74.5854 5.4434 74.1648 5.48373 73.7441 5.52405C73.3242 5.51771 72.9272 5.53506 72.5532 5.57609C72.1792 5.61712 71.8056 5.63481 71.4323 5.62918C71.1056 5.62425 70.7787 5.64265 70.4513 5.68438C71.1032 5.78756 71.9897 5.80094 73.111 5.72452C74.2323 5.6481 75.2832 5.59395 76.2638 5.56208C76.4978 5.51894 76.8481 5.50089 77.3148 5.50793C77.8287 5.46901 78.3424 5.45343 78.8556 5.46117C79.4163 5.42296 79.9066 5.40703 80.3265 5.41337C80.7938 5.37374 81.1212 5.33201 81.3085 5.28817C81.3085 5.28817 81.2615 5.31079 81.1675 5.35605C81.1208 5.35534 81.0508 5.35429 80.9575 5.35288C80.9109 5.35217 80.9109 5.35217 80.9575 5.35288C81.0042 5.35358 81.1442 5.3557 81.3775 5.35922C82.684 5.37893 84.0379 5.35269 85.4391 5.2805C86.8404 5.2083 88.195 5.1354 89.5029 5.06179C89.0363 5.05475 88.4993 5.06998 87.892 5.10749C87.2854 5.09833 86.6788 5.08918 86.0722 5.08003C85.5123 5.07158 84.9523 5.06313 84.3924 5.05468C83.8325 5.04623 83.3659 5.03918 82.9926 5.03355C83.6465 4.99675 84.2768 4.98292 84.8834 4.99208C85.5374 4.95527 86.191 4.9418 86.8442 4.95166C87.1702 5.00325 87.4731 5.03116 87.7531 5.03539C88.0797 5.04031 88.4063 5.04524 88.733 5.05017L90.6228 5.07869C91.9766 5.05245 93.4709 5.00499 95.1054 4.93632C96.7407 4.82098 98.3522 4.72862 99.9401 4.65924C100.641 4.62314 101.341 4.61037 102.041 4.62094C102.788 4.58554 103.512 4.54979 104.213 4.5137C104.913 4.4776 105.614 4.46483 106.314 4.47539C107.014 4.43929 107.738 4.40355 108.486 4.36815C109.886 4.34262 111.287 4.31708 112.687 4.29154C114.134 4.26671 115.582 4.21855 117.03 4.14706C117.73 4.11096 118.431 4.09819 119.131 4.10875C119.878 4.07336 120.602 4.06094 121.301 4.07151C122.002 4.03541 122.702 4.02264 123.402 4.0332C124.15 3.99781 124.874 3.96206 125.574 3.92596C127.021 3.90113 128.445 3.87595 129.846 3.85041C131.293 3.82558 132.74 3.80075 134.187 3.77591C135.588 3.75038 136.988 3.72484 138.389 3.69931C139.836 3.67447 141.283 3.64964 142.731 3.62481C143.431 3.63537 144.13 3.64594 144.83 3.6565C145.531 3.6204 146.255 3.58465 147.002 3.54926L149.102 3.58095C149.476 3.53992 149.826 3.52187 150.153 3.5268C150.48 3.53173 150.83 3.53701 151.203 3.54264C152.65 3.51781 154.074 3.51596 155.473 3.53708C156.874 3.51155 158.274 3.48601 159.675 3.46047C160.375 3.47104 161.075 3.4816 161.775 3.49216C162.475 3.45607 163.152 3.44295 163.806 3.4528ZM171.445 16.7996C170.978 16.7926 170.442 16.7845 169.835 16.7753C169.276 16.7202 168.879 16.7142 168.645 16.7573C169.065 16.7637 169.578 16.7948 170.184 16.8506C170.791 16.8597 171.211 16.8427 171.445 16.7996ZM223.721 18.1486C224.234 18.1563 224.817 18.1884 225.469 18.245C226.169 18.2555 226.729 18.264 227.149 18.2703C226.497 18.2138 225.844 18.1806 225.191 18.1707C224.585 18.1149 224.095 18.1075 223.721 18.1486Z" fill="#5251D1"/>
</svg>
