<?xml version="1.0" encoding="iso-8859-1"?>
<!-- Uploaded to: SVG Repo, www.svgrepo.com, Generator: SVG Repo Mixer Tools -->
<svg height="800px" width="800px" version="1.1" id="Capa_1" xmlns="http://www.w3.org/2000/svg" xmlns:xlink="http://www.w3.org/1999/xlink" 
	 viewBox="0 0 493.079 493.079" xml:space="preserve">
<g>
	<g>
		<g>
			<path style="fill:#010002;" d="M111.781,235.411l18.751,18.751H78.754c0-23.873,17.417-32.868,41.021-35.184l-10.566,10.579
				h8.422L111.781,235.411z M155.439,180.873c-0.745,10.501-5.235,22.765-11.645,29.347h24.841v-27.744
				c0-28.997-15.341-40.023-34.232-40.023c-18.91,0-34.264,11.026-34.264,40.023v27.744h24.841
				c-6.203-6.362-10.628-18.068-11.612-28.317l0.269-0.016c10.725,0,19.957-4.441,25.032-10.978
				C142.366,175.717,148.316,179.27,155.439,180.873z M288.054,88.485l4.331-4.347h-6.281l7.868-7.852
				c-17.56,1.713-30.49,8.393-30.49,26.143h38.452L288.054,88.485z M289.227,48.717l0.191-0.016c7.933,0,14.816-3.301,18.593-8.153
				c2.76,3.57,7.185,6.219,12.484,7.408c-0.554,7.803-3.903,16.912-8.678,21.813h18.496V49.145c0-21.544-11.438-29.742-25.46-29.742
				c-14.071,0-25.46,8.202-25.46,29.742v20.621h18.464C293.224,65.04,289.943,56.33,289.227,48.717z M323.54,84.122h-6.265
				l4.331,4.347l-13.912,13.928h38.485c0-17.751-12.912-24.43-30.49-26.143L323.54,84.122z M148.996,218.976l10.566,10.579h-8.422
				l5.853,5.869l-18.751,18.751h51.778C190.02,230.303,172.6,221.308,148.996,218.976z M348.605,391.949l14.071,14.071h-11.214
				l7.774,7.774l-24.906,24.938h68.846C403.159,406.972,380.044,395.01,348.605,391.949z M447.987,374.262
				c0,65.532-53.285,118.817-118.817,118.817c-65.5,0-118.833-53.285-118.833-118.817c0-26.063,8.551-50.097,22.811-69.688
				l-39.214-31.728l2.316-2.87c-16.102,15.483-37.882,25.032-61.82,25.032c-49.253,0-89.338-40.072-89.338-89.327
				s40.056-89.311,89.343-89.311c22.033,0,42.181,8.059,57.79,21.353c13.912-10.485,45.148-33.931,54.681-39.625
				c-5.173-9.471-8.422-20.161-8.422-31.712C238.482,29.775,268.257,0,304.885,0c36.596,0,66.371,29.775,66.371,66.387
				c0,36.596-29.775,66.371-66.371,66.371c-22.273,0-41.896-11.104-53.92-27.951c-5.329,2.983-29.775,20.909-52.857,38.358
				c15.83,16.118,25.619,38.2,25.619,62.516c0,21.845-7.9,41.863-20.955,57.408l38.705,31.313
				c21.764-23.86,52.951-38.961,87.724-38.961C394.702,255.462,447.987,308.763,447.987,374.262z M304.853,125.463
				c32.567,0,59.06-26.49,59.06-59.044c0-32.567-26.49-59.044-59.06-59.044s-59.06,26.477-59.06,59.044
				C245.796,98.97,272.286,125.463,304.853,125.463z M213.845,205.698c0-43.813-35.628-79.46-79.444-79.46
				c-43.862,0-79.49,35.644-79.49,79.46s35.628,79.46,79.49,79.46C178.217,285.175,213.845,249.528,213.845,205.698z
				 M434.884,374.262c0-58.283-47.431-105.714-105.714-105.714S223.472,315.98,223.472,374.262
				c0,58.299,47.415,105.714,105.698,105.714S434.884,432.575,434.884,374.262z M306.932,406.02h-11.214l14.071-14.071
				c-31.44,3.061-54.587,15.023-54.587,46.78h68.91l-24.938-24.938L306.932,406.02z M357.218,341.265
				c-1.014,13.977-6.964,30.267-15.529,39.023h33.059v-36.914c0-38.579-20.384-53.22-45.575-53.22
				c-25.159,0-45.575,14.657-45.575,53.22v36.914h33.091c-8.263-8.471-14.165-24.032-15.467-37.675l0.317-0.048
				c14.246,0,26.555-5.886,33.312-14.563C339.768,334.349,347.701,339.124,357.218,341.265z"/>
		</g>
	</g>
</g>
</svg>